<?xml version="1.0" standalone="no"?>
 <!DOCTYPE svg PUBLIC "-//W3C//DTD SVG 1.1//EN" 
 "http://www.w3.org/Graphics/SVG/1.1/DTD/svg11.dtd"> 
<svg xmlns="http://www.w3.org/2000/svg" version="1.1" 
    width="27.94cm" height="21.59cm" viewBox="0 0 110000 85000 ">
<title>SVG Picture created as Propeddle-B_SilkS.svg date 2014/07/25 23:48:50 </title>
  <desc>Picture generated by PCBNEW </desc>
<g style="fill:#000000; fill-opacity:1;stroke:#000000; stroke-opacity:1;
stroke-linecap:round; stroke-linejoin:round; "
 transform="translate(0 0) scale(1 1)">
</g>
<g style="fill:#000000; fill-opacity:0.0; 
stroke:#000000; stroke-width:118.11; stroke-opacity:1; 
stroke-linecap:round; stroke-linejoin:round;">
<path d="M38526 36823
L38526 36023
L38221 36023
L38145 36061
L38107 36100
L38069 36176
L38069 36290
L38107 36366
L38145 36404
L38221 36442
L38526 36442
" />
<path d="M37269 36823
L37535 36442
" />
<path d="M37726 36823
L37726 36023
L37421 36023
L37345 36061
L37307 36100
L37269 36176
L37269 36290
L37307 36366
L37345 36404
L37421 36442
L37726 36442
" />
<path d="M36773 36023
L36621 36023
L36545 36061
L36469 36138
L36430 36290
L36430 36557
L36469 36709
L36545 36785
L36621 36823
L36773 36823
L36850 36785
L36926 36709
L36964 36557
L36964 36290
L36926 36138
L36850 36061
L36773 36023
" />
<path d="M36088 36823
L36088 36023
L35783 36023
L35707 36061
L35669 36100
L35630 36176
L35630 36290
L35669 36366
L35707 36404
L35783 36442
L36088 36442
" />
<path d="M35288 36404
L35021 36404
" />
<path d="M34907 36823
L35288 36823
L35288 36023
L34907 36023
" />
<path d="M34564 36823
L34564 36023
L34373 36023
L34259 36061
L34183 36138
L34145 36214
L34107 36366
L34107 36480
L34145 36633
L34183 36709
L34259 36785
L34373 36823
L34564 36823
" />
<path d="M33764 36823
L33764 36023
L33573 36023
L33459 36061
L33383 36138
L33345 36214
L33307 36366
L33307 36480
L33345 36633
L33383 36709
L33459 36785
L33573 36823
L33764 36823
" />
<path d="M32583 36823
L32964 36823
L32964 36023
" />
<path d="M32316 36404
L32050 36404
" />
<path d="M31935 36823
L32316 36823
L32316 36023
L31935 36023
" />
<path d="M40964 37528
L40811 38061
L40659 37680
L40507 38061
L40354 37528
" />
<path d="M40126 37528
L39973 38061
L39821 37680
L39669 38061
L39516 37528
" />
<path d="M39288 37528
L39135 38061
L38983 37680
L38830 38061
L38678 37528
" />
<path d="M38373 37985
L38335 38023
L38373 38061
L38411 38023
L38373 37985
L38373 38061
" />
<path d="M37992 37528
L37992 38328
" />
<path d="M37992 37566
L37916 37528
L37764 37528
L37688 37566
L37649 37604
L37611 37680
L37611 37909
L37649 37985
L37688 38023
L37764 38061
L37916 38061
L37992 38023
" />
<path d="M37269 38061
L37269 37528
" />
<path d="M37269 37680
L37230 37604
L37192 37566
L37116 37528
L37040 37528
" />
<path d="M36659 38061
L36735 38023
L36773 37985
L36811 37909
L36811 37680
L36773 37604
L36735 37566
L36659 37528
L36545 37528
L36469 37566
L36430 37604
L36392 37680
L36392 37909
L36430 37985
L36469 38023
L36545 38061
L36659 38061
" />
<path d="M36049 37528
L36049 38328
" />
<path d="M36049 37566
L35973 37528
L35821 37528
L35745 37566
L35707 37604
L35669 37680
L35669 37909
L35707 37985
L35745 38023
L35821 38061
L35973 38061
L36049 38023
" />
<path d="M35021 38023
L35097 38061
L35249 38061
L35326 38023
L35364 37947
L35364 37642
L35326 37566
L35249 37528
L35097 37528
L35021 37566
L34983 37642
L34983 37719
L35364 37795
" />
<path d="M34297 38061
L34297 37261
" />
<path d="M34297 38023
L34373 38061
L34526 38061
L34602 38023
L34640 37985
L34678 37909
L34678 37680
L34640 37604
L34602 37566
L34526 37528
L34373 37528
L34297 37566
" />
<path d="M33573 38061
L33573 37261
" />
<path d="M33573 38023
L33649 38061
L33802 38061
L33878 38023
L33916 37985
L33954 37909
L33954 37680
L33916 37604
L33878 37566
L33802 37528
L33649 37528
L33573 37566
" />
<path d="M33078 38061
L33154 38023
L33192 37947
L33192 37261
" />
<path d="M32469 38023
L32545 38061
L32697 38061
L32773 38023
L32811 37947
L32811 37642
L32773 37566
L32697 37528
L32545 37528
L32469 37566
L32430 37642
L32430 37719
L32811 37795
" />
<path d="M32088 37985
L32050 38023
L32088 38061
L32126 38023
L32088 37985
L32088 38061
" />
<path d="M31364 38023
L31440 38061
L31592 38061
L31669 38023
L31707 37985
L31745 37909
L31745 37680
L31707 37604
L31669 37566
L31592 37528
L31440 37528
L31364 37566
" />
<path d="M30907 38061
L30983 38023
L31021 37985
L31059 37909
L31059 37680
L31021 37604
L30983 37566
L30907 37528
L30792 37528
L30716 37566
L30678 37604
L30640 37680
L30640 37909
L30678 37985
L30716 38023
L30792 38061
L30907 38061
" />
<path d="M30297 38061
L30297 37528
" />
<path d="M30297 37604
L30259 37566
L30183 37528
L30069 37528
L29992 37566
L29954 37642
L29954 38061
" />
<path d="M29954 37642
L29916 37566
L29840 37528
L29726 37528
L29650 37566
L29611 37642
L29611 38061
" />
</g>
<g style="fill:#000000; fill-opacity:0.0; 
stroke:#000000; stroke-width:112.5; stroke-opacity:1; 
stroke-linecap:round; stroke-linejoin:round;">
<path d="M39642 30128
L39642 30407
L39871 30257
L39871 30321
L39900 30364
L39928 30385
L39985 30407
L40128 30407
L40185 30385
L40214 30364
L40242 30321
L40242 30192
L40214 30150
L40185 30128
" />
<path d="M40185 30600
L40214 30621
L40242 30600
L40214 30578
L40185 30600
L40242 30600
" />
<path d="M39642 30771
L39642 31050
L39871 30900
L39871 30964
L39900 31007
L39928 31028
L39985 31050
L40128 31050
L40185 31028
L40214 31007
L40242 30964
L40242 30835
L40214 30792
L40185 30771
" />
<path d="M39642 31178
L40242 31328
L39642 31478
" />
<path d="M40242 31971
L39642 31971
L39642 32142
L39671 32185
L39700 32207
L39757 32228
L39842 32228
L39900 32207
L39928 32185
L39957 32142
L39957 31971
" />
<path d="M39642 32378
L40242 32485
L39814 32571
L40242 32657
L39642 32764
" />
<path d="M40242 33192
L39957 33042
" />
<path d="M40242 32935
L39642 32935
L39642 33107
L39671 33150
L39700 33171
L39757 33192
L39842 33192
L39900 33171
L39928 33150
L39957 33107
L39957 32935
" />
<path d="M39642 33942
L39642 33728
L39928 33707
L39900 33728
L39871 33771
L39871 33878
L39900 33921
L39928 33942
L39985 33964
L40128 33964
L40185 33942
L40214 33921
L40242 33878
L40242 33771
L40214 33728
L40185 33707
" />
<path d="M39642 34092
L40242 34242
L39642 34392
" />
</g>
<g style="fill:#000000; fill-opacity:0.0; 
stroke:#000000; stroke-width:35; stroke-opacity:1; 
stroke-linecap:round; stroke-linejoin:round;">
<path d="M80934 46630
L80934 46869
L81172 46892
L81148 46869
L81125 46821
L81125 46702
L81148 46654
L81172 46630
L81220 46607
L81339 46607
L81387 46630
L81410 46654
L81434 46702
L81434 46821
L81410 46869
L81387 46892
" />
<path d="M81434 46392
L80934 46392
L81291 46226
L80934 46059
L81434 46059
" />
<path d="M81434 45821
L80934 45821
" />
<path d="M81172 45821
L81172 45535
" />
<path d="M81434 45535
L80934 45535
" />
<path d="M81101 45345
L81101 45083
L81434 45345
L81434 45083
" />
</g> 
</svg>
