<?xml version="1.0" standalone="no"?>
 <!DOCTYPE svg PUBLIC "-//W3C//DTD SVG 1.1//EN" 
 "http://www.w3.org/Graphics/SVG/1.1/DTD/svg11.dtd"> 
<svg xmlns="http://www.w3.org/2000/svg" version="1.1" 
    width="27.94cm" height="21.59cm" viewBox="0 0 110000 85000 ">
<title>SVG Picture created as Propeddle-F_Mask.svg date 2014/07/25 23:48:50 </title>
  <desc>Picture generated by PCBNEW </desc>
<g style="fill:#000000; fill-opacity:1;stroke:#000000; stroke-opacity:1;
stroke-linecap:round; stroke-linejoin:round; "
 transform="translate(0 0) scale(1 1)">
</g>
<g style="fill:#000000; fill-opacity:0.0; 
stroke:#000000; stroke-width:59.0551; stroke-opacity:1; 
stroke-linecap:round; stroke-linejoin:round;">
</g>
<g style="fill:#000000; fill-opacity:1.0; 
stroke:#000000; stroke-width:59.0551; stroke-opacity:1; 
stroke-linecap:round; stroke-linejoin:round;">
<polyline style="fill-rule:evenodd;"
points="41520,38729
41520,39270
40979,39270
40979,38729
41520,38729
" /> 
<circle cx="40250" cy="39000" r="270.472" /> 
<polyline style="fill-rule:evenodd;"
points="40495,58245
40004,58245
40004,57754
40495,57754
40495,58245
" /> 
<circle cx="40250" cy="57000" r="245.472" /> 
<circle cx="40250" cy="56000" r="245.472" /> 
<circle cx="40250" cy="55000" r="245.472" /> 
<circle cx="40250" cy="54000" r="245.472" /> 
<circle cx="40250" cy="53000" r="245.472" /> 
<circle cx="40250" cy="52000" r="245.472" /> 
<circle cx="40250" cy="51000" r="245.472" /> 
<circle cx="40250" cy="50000" r="245.472" /> 
<circle cx="40250" cy="49000" r="245.472" /> 
<circle cx="40250" cy="48000" r="245.472" /> 
<circle cx="40250" cy="47000" r="245.472" /> 
<circle cx="40250" cy="46000" r="245.472" /> 
<circle cx="40250" cy="45000" r="245.472" /> 
<circle cx="40250" cy="44000" r="245.472" /> 
<circle cx="40250" cy="43000" r="245.472" /> 
<circle cx="34250" cy="43000" r="245.472" /> 
<circle cx="34250" cy="44000" r="245.472" /> 
<circle cx="34250" cy="45000" r="245.472" /> 
<circle cx="34250" cy="46000" r="245.472" /> 
<circle cx="34250" cy="47000" r="245.472" /> 
<circle cx="34250" cy="48000" r="245.472" /> 
<circle cx="34250" cy="49000" r="245.472" /> 
<circle cx="34250" cy="50000" r="245.472" /> 
<circle cx="34250" cy="51000" r="245.472" /> 
<circle cx="34250" cy="52000" r="245.472" /> 
<circle cx="34250" cy="53000" r="245.472" /> 
<circle cx="34250" cy="54000" r="245.472" /> 
<circle cx="34250" cy="55000" r="245.472" /> 
<circle cx="34250" cy="56000" r="245.472" /> 
<circle cx="34250" cy="57000" r="245.472" /> 
<circle cx="34250" cy="58000" r="245.472" /> 
<polyline style="fill-rule:evenodd;"
points="63245,58245
62754,58245
62754,57754
63245,57754
63245,58245
" /> 
<circle cx="63000" cy="57000" r="245.472" /> 
<circle cx="63000" cy="56000" r="245.472" /> 
<circle cx="63000" cy="55000" r="245.472" /> 
<circle cx="63000" cy="54000" r="245.472" /> 
<circle cx="63000" cy="53000" r="245.472" /> 
<circle cx="63000" cy="52000" r="245.472" /> 
<circle cx="63000" cy="51000" r="245.472" /> 
<circle cx="63000" cy="50000" r="245.472" /> 
<circle cx="63000" cy="49000" r="245.472" /> 
<circle cx="60000" cy="49000" r="245.472" /> 
<circle cx="60000" cy="50000" r="245.472" /> 
<circle cx="60000" cy="51000" r="245.472" /> 
<circle cx="60000" cy="52000" r="245.472" /> 
<circle cx="60000" cy="53000" r="245.472" /> 
<circle cx="60000" cy="54000" r="245.472" /> 
<circle cx="60000" cy="55000" r="245.472" /> 
<circle cx="60000" cy="56000" r="245.472" /> 
<circle cx="60000" cy="57000" r="245.472" /> 
<circle cx="60000" cy="58000" r="245.472" /> 
<polyline style="fill-rule:evenodd;"
points="63245,46245
62754,46245
62754,45754
63245,45754
63245,46245
" /> 
<circle cx="63000" cy="45000" r="245.472" /> 
<circle cx="63000" cy="44000" r="245.472" /> 
<circle cx="63000" cy="43000" r="245.472" /> 
<circle cx="63000" cy="42000" r="245.472" /> 
<circle cx="63000" cy="41000" r="245.472" /> 
<circle cx="63000" cy="40000" r="245.472" /> 
<circle cx="63000" cy="39000" r="245.472" /> 
<circle cx="63000" cy="38000" r="245.472" /> 
<circle cx="63000" cy="37000" r="245.472" /> 
<circle cx="60000" cy="37000" r="245.472" /> 
<circle cx="60000" cy="38000" r="245.472" /> 
<circle cx="60000" cy="39000" r="245.472" /> 
<circle cx="60000" cy="40000" r="245.472" /> 
<circle cx="60000" cy="41000" r="245.472" /> 
<circle cx="60000" cy="42000" r="245.472" /> 
<circle cx="60000" cy="43000" r="245.472" /> 
<circle cx="60000" cy="44000" r="245.472" /> 
<circle cx="60000" cy="45000" r="245.472" /> 
<circle cx="60000" cy="46000" r="245.472" /> 
<circle cx="61000" cy="59500" r="245.472" /> 
<circle cx="62000" cy="59500" r="245.472" /> 
<circle cx="56750" cy="59500" r="245.472" /> 
<circle cx="57750" cy="59500" r="245.472" /> 
<circle cx="61000" cy="47500" r="245.472" /> 
<circle cx="62000" cy="47500" r="245.472" /> 
<circle cx="34250" cy="59500" r="245.472" /> 
<circle cx="35250" cy="59500" r="245.472" /> 
<circle cx="52500" cy="36500" r="245.472" /> 
<circle cx="51500" cy="36500" r="245.472" /> 
<polyline style="fill-rule:evenodd;"
points="80995,42245
80504,42245
80504,41754
80995,41754
80995,42245
" /> 
<circle cx="80750" cy="41000" r="245.472" /> 
<circle cx="80750" cy="40000" r="245.472" /> 
<circle cx="80750" cy="39000" r="245.472" /> 
<circle cx="77750" cy="39000" r="245.472" /> 
<circle cx="77750" cy="40000" r="245.472" /> 
<circle cx="77750" cy="41000" r="245.472" /> 
<circle cx="77750" cy="42000" r="245.472" /> 
<polyline style="fill-rule:evenodd;"
points="43004,38754
43495,38754
43495,39245
43004,39245
43004,38754
" /> 
<circle cx="43250" cy="40000" r="245.472" /> 
<circle cx="43250" cy="41000" r="245.472" /> 
<circle cx="43250" cy="42000" r="245.472" /> 
<circle cx="43250" cy="43000" r="245.472" /> 
<circle cx="43250" cy="44000" r="245.472" /> 
<circle cx="43250" cy="45000" r="245.472" /> 
<circle cx="43250" cy="46000" r="245.472" /> 
<circle cx="43250" cy="47000" r="245.472" /> 
<circle cx="43250" cy="48000" r="245.472" /> 
<circle cx="43250" cy="49000" r="245.472" /> 
<circle cx="43250" cy="50000" r="245.472" /> 
<circle cx="43250" cy="51000" r="245.472" /> 
<circle cx="43250" cy="52000" r="245.472" /> 
<circle cx="43250" cy="53000" r="245.472" /> 
<circle cx="43250" cy="54000" r="245.472" /> 
<circle cx="43250" cy="55000" r="245.472" /> 
<circle cx="43250" cy="56000" r="245.472" /> 
<circle cx="43250" cy="57000" r="245.472" /> 
<circle cx="43250" cy="58000" r="245.472" /> 
<circle cx="49250" cy="58000" r="245.472" /> 
<circle cx="49250" cy="57000" r="245.472" /> 
<circle cx="49250" cy="56000" r="245.472" /> 
<circle cx="49250" cy="55000" r="245.472" /> 
<circle cx="49250" cy="54000" r="245.472" /> 
<circle cx="49250" cy="53000" r="245.472" /> 
<circle cx="49250" cy="52000" r="245.472" /> 
<circle cx="49250" cy="51000" r="245.472" /> 
<circle cx="49250" cy="50000" r="245.472" /> 
<circle cx="49250" cy="49000" r="245.472" /> 
<circle cx="49250" cy="48000" r="245.472" /> 
<circle cx="49250" cy="47000" r="245.472" /> 
<circle cx="49250" cy="46000" r="245.472" /> 
<circle cx="49250" cy="45000" r="245.472" /> 
<circle cx="49250" cy="44000" r="245.472" /> 
<circle cx="49250" cy="43000" r="245.472" /> 
<circle cx="49250" cy="42000" r="245.472" /> 
<circle cx="49250" cy="41000" r="245.472" /> 
<circle cx="49250" cy="40000" r="245.472" /> 
<circle cx="49250" cy="39000" r="245.472" /> 
<polyline style="fill-rule:evenodd;"
points="70004,36754
70495,36754
70495,37245
70004,37245
70004,36754
" /> 
<circle cx="70250" cy="38000" r="245.472" /> 
<circle cx="70250" cy="39000" r="245.472" /> 
<circle cx="70250" cy="40000" r="245.472" /> 
<circle cx="70250" cy="41000" r="245.472" /> 
<circle cx="70250" cy="42000" r="245.472" /> 
<circle cx="70250" cy="43000" r="245.472" /> 
<circle cx="70250" cy="44000" r="245.472" /> 
<circle cx="70250" cy="45000" r="245.472" /> 
<circle cx="70250" cy="46000" r="245.472" /> 
<circle cx="70250" cy="47000" r="245.472" /> 
<circle cx="70250" cy="48000" r="245.472" /> 
<circle cx="70250" cy="49000" r="245.472" /> 
<circle cx="70250" cy="50000" r="245.472" /> 
<circle cx="70250" cy="51000" r="245.472" /> 
<circle cx="70250" cy="52000" r="245.472" /> 
<circle cx="70250" cy="53000" r="245.472" /> 
<circle cx="70250" cy="54000" r="245.472" /> 
<circle cx="70250" cy="55000" r="245.472" /> 
<circle cx="70250" cy="56000" r="245.472" /> 
<circle cx="76250" cy="56000" r="245.472" /> 
<circle cx="76250" cy="55000" r="245.472" /> 
<circle cx="76250" cy="54000" r="245.472" /> 
<circle cx="76250" cy="53000" r="245.472" /> 
<circle cx="76250" cy="52000" r="245.472" /> 
<circle cx="76250" cy="51000" r="245.472" /> 
<circle cx="76250" cy="50000" r="245.472" /> 
<circle cx="76250" cy="49000" r="245.472" /> 
<circle cx="76250" cy="48000" r="245.472" /> 
<circle cx="76250" cy="47000" r="245.472" /> 
<circle cx="76250" cy="46000" r="245.472" /> 
<circle cx="76250" cy="45000" r="245.472" /> 
<circle cx="76250" cy="44000" r="245.472" /> 
<circle cx="76250" cy="43000" r="245.472" /> 
<circle cx="76250" cy="42000" r="245.472" /> 
<circle cx="76250" cy="41000" r="245.472" /> 
<circle cx="76250" cy="40000" r="245.472" /> 
<circle cx="76250" cy="39000" r="245.472" /> 
<circle cx="76250" cy="38000" r="245.472" /> 
<circle cx="76250" cy="37000" r="245.472" /> 
<polyline style="fill-rule:evenodd;"
points="58995,58245
58504,58245
58504,57754
58995,57754
58995,58245
" /> 
<circle cx="58750" cy="57000" r="245.472" /> 
<circle cx="58750" cy="56000" r="245.472" /> 
<circle cx="58750" cy="55000" r="245.472" /> 
<circle cx="58750" cy="54000" r="245.472" /> 
<circle cx="58750" cy="53000" r="245.472" /> 
<circle cx="58750" cy="52000" r="245.472" /> 
<circle cx="58750" cy="51000" r="245.472" /> 
<circle cx="58750" cy="50000" r="245.472" /> 
<circle cx="58750" cy="49000" r="245.472" /> 
<circle cx="55750" cy="49000" r="245.472" /> 
<circle cx="55750" cy="50000" r="245.472" /> 
<circle cx="55750" cy="51000" r="245.472" /> 
<circle cx="55750" cy="52000" r="245.472" /> 
<circle cx="55750" cy="53000" r="245.472" /> 
<circle cx="55750" cy="54000" r="245.472" /> 
<circle cx="55750" cy="55000" r="245.472" /> 
<circle cx="55750" cy="56000" r="245.472" /> 
<circle cx="55750" cy="57000" r="245.472" /> 
<circle cx="55750" cy="58000" r="245.472" /> 
<polyline style="fill-rule:evenodd;"
points="50254,37754
50745,37754
50745,38245
50254,38245
50254,37754
" /> 
<circle cx="50500" cy="39000" r="245.472" /> 
<circle cx="50500" cy="40000" r="245.472" /> 
<circle cx="50500" cy="41000" r="245.472" /> 
<circle cx="50500" cy="42000" r="245.472" /> 
<circle cx="50500" cy="43000" r="245.472" /> 
<circle cx="50500" cy="44000" r="245.472" /> 
<circle cx="53500" cy="44000" r="245.472" /> 
<circle cx="53500" cy="43000" r="245.472" /> 
<circle cx="53500" cy="42000" r="245.472" /> 
<circle cx="53500" cy="41000" r="245.472" /> 
<circle cx="53500" cy="40000" r="245.472" /> 
<circle cx="53500" cy="39000" r="245.472" /> 
<circle cx="53500" cy="38000" r="245.472" /> 
<polyline style="fill-rule:evenodd;"
points="38229,33729
38770,33729
38770,34270
38229,34270
38229,33729
" /> 
<circle cx="38500" cy="35000" r="270.472" /> 
<polyline style="fill-rule:evenodd;"
points="34981,33731
35522,33731
35522,34272
34981,34272
34981,33731
" /> 
<circle cx="35252" cy="35002" r="270.472" /> 
<polyline style="fill-rule:evenodd;"
points="31731,33731
32272,33731
32272,34272
31731,34272
31731,33731
" /> 
<circle cx="32002" cy="35002" r="270.472" /> 
<circle cx="41750" cy="46000" r="245.472" /> 
<circle cx="41750" cy="45000" r="245.472" /> 
<circle cx="78750" cy="43000" r="245.472" /> 
<circle cx="79750" cy="43000" r="245.472" /> 
<circle cx="77750" cy="45000" r="245.472" /> 
<circle cx="77750" cy="46000" r="245.472" /> 
<circle cx="68750" cy="47000" r="245.472" /> 
<circle cx="68750" cy="46000" r="245.472" /> 
<polyline style="fill-rule:evenodd;"
points="32322,32822
31681,32822
31681,32181
32322,32181
32322,32822
" /> 
<circle cx="33002" cy="32502" r="320.472" /> 
<circle cx="34002" cy="32502" r="320.472" /> 
<polyline style="fill-rule:evenodd;"
points="34722,27722
31281,27722
31281,24281
34722,24281
34722,27722
" /> 
<polyline style="fill-rule:evenodd;"
points="36820,32820
36179,32820
36179,32179
36820,32179
36820,32820
" /> 
<circle cx="37500" cy="32500" r="320.472" /> 
<circle cx="38500" cy="32500" r="320.472" /> 
<polyline style="fill-rule:evenodd;"
points="39220,27720
35779,27720
35779,24279
39220,24279
39220,27720
" /> 
<circle cx="51750" cy="26000" r="915.354" /> 
<circle cx="53718.5" cy="27771.7" r="915.354" /> 
<circle cx="49781.5" cy="27771.7" r="915.354" /> 
<circle cx="51750" cy="27771.7" r="541.339" /> 
<circle cx="57330.7" cy="27250" r="856.299" /> 
<circle cx="67169.3" cy="27250" r="856.299" /> 
<circle cx="60102.4" cy="27250" r="303.15" /> 
<circle cx="61007.9" cy="27250" r="303.15" /> 
<circle cx="61909.4" cy="27250" r="303.15" /> 
<circle cx="62811" cy="27250" r="303.15" /> 
<circle cx="63712.6" cy="27250" r="303.15" /> 
<circle cx="60551.2" cy="26250" r="303.15" /> 
<circle cx="60551.2" cy="28250" r="303.15" /> 
<circle cx="61452.8" cy="28250" r="303.15" /> 
<circle cx="62354.3" cy="28250" r="303.15" /> 
<circle cx="63255.9" cy="28250" r="303.15" /> 
<circle cx="64157.5" cy="28250" r="303.15" /> 
<circle cx="61452.8" cy="26250" r="303.15" /> 
<circle cx="62354.3" cy="26250" r="303.15" /> 
<circle cx="63255.9" cy="26250" r="303.15" /> 
<circle cx="64157.5" cy="26250" r="303.15" /> 
<circle cx="73750" cy="29750" r="270.472" /> 
<circle cx="73750" cy="33750" r="270.472" /> 
<circle cx="54750" cy="29750" r="270.472" /> 
<circle cx="54750" cy="33750" r="270.472" /> 
<circle cx="63500" cy="33750" r="270.472" /> 
<circle cx="63500" cy="29750" r="270.472" /> 
<circle cx="64500" cy="33750" r="270.472" /> 
<circle cx="64500" cy="29750" r="270.472" /> 
<circle cx="62500" cy="33750" r="270.472" /> 
<circle cx="62500" cy="29750" r="270.472" /> 
<circle cx="61500" cy="33750" r="270.472" /> 
<circle cx="61500" cy="29750" r="270.472" /> 
<circle cx="60500" cy="33750" r="270.472" /> 
<circle cx="60500" cy="29750" r="270.472" /> 
<circle cx="51750" cy="29750" r="270.472" /> 
<circle cx="51750" cy="33750" r="270.472" /> 
<circle cx="53750" cy="29750" r="270.472" /> 
<circle cx="53750" cy="33750" r="270.472" /> 
<circle cx="52750" cy="29750" r="270.472" /> 
<circle cx="52750" cy="33750" r="270.472" /> 
<circle cx="72750" cy="29750" r="270.472" /> 
<circle cx="72750" cy="33750" r="270.472" /> 
<circle cx="70750" cy="29750" r="270.472" /> 
<circle cx="70750" cy="33750" r="270.472" /> 
<circle cx="69750" cy="29750" r="270.472" /> 
<circle cx="69750" cy="33750" r="270.472" /> 
<circle cx="71750" cy="29750" r="270.472" /> 
<circle cx="71750" cy="33750" r="270.472" /> 
<circle cx="43750" cy="28159.4" r="1053.15" /> 
<circle cx="43750" cy="25698.8" r="1053.15" /> 
<circle cx="41860.2" cy="26978.3" r="1013.78" /> 
<polyline style="fill-rule:evenodd;"
points="55479,36770
55479,36229
56020,36229
56020,36770
55479,36770
" /> 
<circle cx="56750" cy="36500" r="270.472" /> 
<circle cx="57750" cy="36500" r="270.472" /> 
<polyline style="fill-rule:evenodd;"
points="75479,24770
75479,24229
76020,24229
76020,24770
75479,24770
" /> 
<circle cx="76750" cy="24500" r="270.472" /> 
<circle cx="77750" cy="24500" r="270.472" /> 
<circle cx="78750" cy="24500" r="270.472" /> 
<polyline style="fill-rule:evenodd;"
points="29479,38729
30020,38729
30020,39270
29479,39270
29479,38729
" /> 
<circle cx="30750" cy="39000" r="270.472" /> 
<circle cx="29750" cy="44000" r="270.472" /> 
<circle cx="30750" cy="40000" r="270.472" /> 
<circle cx="29750" cy="45000" r="270.472" /> 
<circle cx="30750" cy="41000" r="270.472" /> 
<circle cx="29750" cy="46000" r="270.472" /> 
<circle cx="30750" cy="42000" r="270.472" /> 
<circle cx="29750" cy="47000" r="270.472" /> 
<circle cx="30750" cy="43000" r="270.472" /> 
<circle cx="29750" cy="48000" r="270.472" /> 
<circle cx="30750" cy="44000" r="270.472" /> 
<circle cx="29750" cy="49000" r="270.472" /> 
<circle cx="30750" cy="45000" r="270.472" /> 
<circle cx="29750" cy="50000" r="270.472" /> 
<circle cx="30750" cy="46000" r="270.472" /> 
<circle cx="29750" cy="51000" r="270.472" /> 
<circle cx="30750" cy="47000" r="270.472" /> 
<circle cx="29750" cy="52000" r="270.472" /> 
<circle cx="30750" cy="48000" r="270.472" /> 
<circle cx="29750" cy="53000" r="270.472" /> 
<circle cx="30750" cy="49000" r="270.472" /> 
<circle cx="29750" cy="54000" r="270.472" /> 
<circle cx="30750" cy="50000" r="270.472" /> 
<circle cx="30750" cy="51000" r="270.472" /> 
<circle cx="29750" cy="55000" r="270.472" /> 
<circle cx="30750" cy="52000" r="270.472" /> 
<circle cx="30750" cy="54000" r="270.472" /> 
<circle cx="30750" cy="55000" r="270.472" /> 
<circle cx="30750" cy="56000" r="270.472" /> 
<circle cx="30750" cy="57000" r="270.472" /> 
<circle cx="29750" cy="56000" r="270.472" /> 
<circle cx="29750" cy="57000" r="270.472" /> 
<circle cx="29750" cy="40000" r="270.472" /> 
<circle cx="29750" cy="41000" r="270.472" /> 
<circle cx="29750" cy="42000" r="270.472" /> 
<circle cx="29750" cy="43000" r="270.472" /> 
<circle cx="29750" cy="58000" r="270.472" /> 
<circle cx="30750" cy="58000" r="270.472" /> 
<circle cx="30750" cy="53000" r="270.472" /> 
<circle cx="70661.4" cy="26096.5" r="324.803" /> 
<circle cx="70661.4" cy="27080.7" r="324.803" /> 
<circle cx="73338.6" cy="26096.5" r="324.803" /> 
<circle cx="72000" cy="24600.4" r="639.764" /> 
<circle cx="73338.6" cy="27080.7" r="324.803" /> 
<circle cx="71488.2" cy="26096.5" r="324.803" /> 
<circle cx="72511.8" cy="26096.5" r="324.803" /> 
<polyline style="fill-rule:evenodd;"
points="46979,36770
46979,36229
47520,36229
47520,36770
46979,36770
" /> 
<circle cx="48250" cy="36500" r="270.472" /> 
<circle cx="49250" cy="36500" r="270.472" /> 
<circle cx="77885.8" cy="30470.5" r="295.276" /> 
<circle cx="77885.8" cy="33029.5" r="295.276" /> 
<circle cx="76114.2" cy="30470.5" r="295.276" /> 
<circle cx="76114.2" cy="33029.5" r="295.276" /> 
<circle cx="29252" cy="24752" r="984.252" /> 
<circle cx="29252" cy="59752" r="984.252" /> 
<circle cx="80500" cy="24750" r="984.252" /> 
<circle cx="80500" cy="59750" r="984.252" /> 
<circle cx="79750" cy="49000" r="270.472" /> 
<circle cx="79750" cy="53000" r="270.472" /> 
<circle cx="78750" cy="49000" r="270.472" /> 
<circle cx="78750" cy="53000" r="270.472" /> 
<polyline style="fill-rule:evenodd;"
points="78449,57550
78449,56949
79050,56949
79050,57550
78449,57550
" /> 
<circle cx="79750" cy="57250" r="300.472" /> 
<polyline style="fill-rule:evenodd;"
points="78449,55050
78449,54449
79050,54449
79050,55050
78449,55050
" /> 
<circle cx="79750" cy="54750" r="300.472" /> 
<circle cx="79500" cy="46950" r="230.472" /> 
<circle cx="79500" cy="45050" r="230.472" /> 
<polyline style="fill-rule:evenodd;"
points="64754,48754
65245,48754
65245,49245
64754,49245
64754,48754
" /> 
<circle cx="65000" cy="50000" r="245.472" /> 
<circle cx="65000" cy="51000" r="245.472" /> 
<circle cx="65000" cy="52000" r="245.472" /> 
<circle cx="65000" cy="53000" r="245.472" /> 
<circle cx="65000" cy="54000" r="245.472" /> 
<circle cx="65000" cy="55000" r="245.472" /> 
<circle cx="65000" cy="56000" r="245.472" /> 
<circle cx="68000" cy="56000" r="245.472" /> 
<circle cx="68000" cy="55000" r="245.472" /> 
<circle cx="68000" cy="54000" r="245.472" /> 
<circle cx="68000" cy="53000" r="245.472" /> 
<circle cx="68000" cy="52000" r="245.472" /> 
<circle cx="68000" cy="51000" r="245.472" /> 
<circle cx="68000" cy="50000" r="245.472" /> 
<circle cx="68000" cy="49000" r="245.472" /> 
<polyline style="fill-rule:evenodd;"
points="64754,36754
65245,36754
65245,37245
64754,37245
64754,36754
" /> 
<circle cx="65000" cy="38000" r="245.472" /> 
<circle cx="65000" cy="39000" r="245.472" /> 
<circle cx="65000" cy="40000" r="245.472" /> 
<circle cx="65000" cy="41000" r="245.472" /> 
<circle cx="65000" cy="42000" r="245.472" /> 
<circle cx="65000" cy="43000" r="245.472" /> 
<circle cx="65000" cy="44000" r="245.472" /> 
<circle cx="68000" cy="44000" r="245.472" /> 
<circle cx="68000" cy="43000" r="245.472" /> 
<circle cx="68000" cy="42000" r="245.472" /> 
<circle cx="68000" cy="41000" r="245.472" /> 
<circle cx="68000" cy="40000" r="245.472" /> 
<circle cx="68000" cy="39000" r="245.472" /> 
<circle cx="68000" cy="38000" r="245.472" /> 
<circle cx="68000" cy="37000" r="245.472" /> 
<polyline style="fill-rule:evenodd;"
points="42504,33995
42504,33504
42995,33504
42995,33995
42504,33995
" /> 
<circle cx="43750" cy="33750" r="245.472" /> 
<circle cx="44750" cy="33750" r="245.472" /> 
<circle cx="45750" cy="33750" r="245.472" /> 
<circle cx="46750" cy="33750" r="245.472" /> 
<circle cx="47750" cy="33750" r="245.472" /> 
<circle cx="48750" cy="33750" r="245.472" /> 
<circle cx="49750" cy="33750" r="245.472" /> 
<circle cx="49750" cy="30750" r="245.472" /> 
<circle cx="48750" cy="30750" r="245.472" /> 
<circle cx="47750" cy="30750" r="245.472" /> 
<circle cx="46750" cy="30750" r="245.472" /> 
<circle cx="45750" cy="30750" r="245.472" /> 
<circle cx="44750" cy="30750" r="245.472" /> 
<circle cx="43750" cy="30750" r="245.472" /> 
<circle cx="42750" cy="30750" r="245.472" /> 
</g> 
</svg>
