<?xml version="1.0" standalone="no"?>
 <!DOCTYPE svg PUBLIC "-//W3C//DTD SVG 1.1//EN" 
 "http://www.w3.org/Graphics/SVG/1.1/DTD/svg11.dtd"> 
<svg xmlns="http://www.w3.org/2000/svg" version="1.1" 
    width="27.94cm" height="21.59cm" viewBox="0 0 110000 85000 ">
<title>SVG Picture created as Propeddle-F_SilkS.svg date 2014/07/25 23:48:50 </title>
  <desc>Picture generated by PCBNEW </desc>
<g style="fill:#000000; fill-opacity:1;stroke:#000000; stroke-opacity:1;
stroke-linecap:round; stroke-linejoin:round; "
 transform="translate(0 0) scale(1 1)">
</g>
<g style="fill:#000000; fill-opacity:0.0; 
stroke:#000000; stroke-width:147.638; stroke-opacity:1; 
stroke-linecap:round; stroke-linejoin:round;">
<path d="M31975 36825
L31975 36025
L32280 36025
L32356 36063
L32394 36101
L32432 36178
L32432 36292
L32394 36368
L32356 36406
L32280 36444
L31975 36444
" />
<path d="M33232 36825
L32966 36444
" />
<path d="M32775 36825
L32775 36025
L33080 36025
L33156 36063
L33194 36101
L33232 36178
L33232 36292
L33194 36368
L33156 36406
L33080 36444
L32775 36444
" />
<path d="M33728 36025
L33880 36025
L33956 36063
L34032 36140
L34071 36292
L34071 36559
L34032 36711
L33956 36787
L33880 36825
L33728 36825
L33651 36787
L33575 36711
L33537 36559
L33537 36292
L33575 36140
L33651 36063
L33728 36025
" />
<path d="M34413 36825
L34413 36025
L34718 36025
L34794 36063
L34832 36101
L34871 36178
L34871 36292
L34832 36368
L34794 36406
L34718 36444
L34413 36444
" />
<path d="M35213 36406
L35480 36406
" />
<path d="M35594 36825
L35213 36825
L35213 36025
L35594 36025
" />
<path d="M35937 36825
L35937 36025
L36128 36025
L36242 36063
L36318 36140
L36356 36216
L36394 36368
L36394 36482
L36356 36635
L36318 36711
L36242 36787
L36128 36825
L35937 36825
" />
<path d="M36737 36825
L36737 36025
L36928 36025
L37042 36063
L37118 36140
L37156 36216
L37194 36368
L37194 36482
L37156 36635
L37118 36711
L37042 36787
L36928 36825
L36737 36825
" />
<path d="M37918 36825
L37537 36825
L37537 36025
" />
<path d="M38185 36406
L38451 36406
" />
<path d="M38566 36825
L38185 36825
L38185 36025
L38566 36025
" />
<path d="M29537 37560
L29690 38093
L29842 37712
L29994 38093
L30147 37560
" />
<path d="M30375 37560
L30528 38093
L30680 37712
L30832 38093
L30985 37560
" />
<path d="M31213 37560
L31366 38093
L31518 37712
L31671 38093
L31823 37560
" />
<path d="M32128 38017
L32166 38055
L32128 38093
L32090 38055
L32128 38017
L32128 38093
" />
<path d="M32509 37560
L32509 38360
" />
<path d="M32509 37598
L32585 37560
L32737 37560
L32813 37598
L32851 37636
L32890 37712
L32890 37941
L32851 38017
L32813 38055
L32737 38093
L32585 38093
L32509 38055
" />
<path d="M33232 38093
L33232 37560
" />
<path d="M33232 37712
L33271 37636
L33309 37598
L33385 37560
L33461 37560
" />
<path d="M33842 38093
L33766 38055
L33728 38017
L33690 37941
L33690 37712
L33728 37636
L33766 37598
L33842 37560
L33956 37560
L34032 37598
L34071 37636
L34109 37712
L34109 37941
L34071 38017
L34032 38055
L33956 38093
L33842 38093
" />
<path d="M34451 37560
L34451 38360
" />
<path d="M34451 37598
L34528 37560
L34680 37560
L34756 37598
L34794 37636
L34832 37712
L34832 37941
L34794 38017
L34756 38055
L34680 38093
L34528 38093
L34451 38055
" />
<path d="M35480 38055
L35404 38093
L35251 38093
L35175 38055
L35137 37979
L35137 37674
L35175 37598
L35251 37560
L35404 37560
L35480 37598
L35518 37674
L35518 37750
L35137 37826
" />
<path d="M36204 38093
L36204 37293
" />
<path d="M36204 38055
L36128 38093
L35975 38093
L35899 38055
L35861 38017
L35823 37941
L35823 37712
L35861 37636
L35899 37598
L35975 37560
L36128 37560
L36204 37598
" />
<path d="M36928 38093
L36928 37293
" />
<path d="M36928 38055
L36851 38093
L36699 38093
L36623 38055
L36585 38017
L36547 37941
L36547 37712
L36585 37636
L36623 37598
L36699 37560
L36851 37560
L36928 37598
" />
<path d="M37423 38093
L37347 38055
L37309 37979
L37309 37293
" />
<path d="M38032 38055
L37956 38093
L37804 38093
L37728 38055
L37690 37979
L37690 37674
L37728 37598
L37804 37560
L37956 37560
L38032 37598
L38071 37674
L38071 37750
L37690 37826
" />
<path d="M38413 38017
L38451 38055
L38413 38093
L38375 38055
L38413 38017
L38413 38093
" />
<path d="M39137 38055
L39061 38093
L38909 38093
L38832 38055
L38794 38017
L38756 37941
L38756 37712
L38794 37636
L38832 37598
L38909 37560
L39061 37560
L39137 37598
" />
<path d="M39594 38093
L39518 38055
L39480 38017
L39442 37941
L39442 37712
L39480 37636
L39518 37598
L39594 37560
L39709 37560
L39785 37598
L39823 37636
L39861 37712
L39861 37941
L39823 38017
L39785 38055
L39709 38093
L39594 38093
" />
<path d="M40204 38093
L40204 37560
" />
<path d="M40204 37636
L40242 37598
L40318 37560
L40432 37560
L40509 37598
L40547 37674
L40547 38093
" />
<path d="M40547 37674
L40585 37598
L40661 37560
L40775 37560
L40851 37598
L40890 37674
L40890 38093
" />
</g>
<g style="fill:#000000; fill-opacity:0.0; 
stroke:#000000; stroke-width:118.11; stroke-opacity:1; 
stroke-linecap:round; stroke-linejoin:round;">
<path d="M65751 59239
L65554 58957
" />
<path d="M65414 59239
L65414 58648
L65639 58648
L65695 58676
L65723 58704
L65751 58760
L65751 58845
L65723 58901
L65695 58929
L65639 58957
L65414 58957
" />
<path d="M66229 59210
L66173 59239
L66061 59239
L66004 59210
L65976 59154
L65976 58929
L66004 58873
L66061 58845
L66173 58845
L66229 58873
L66257 58929
L66257 58985
L65976 59042
" />
<path d="M66454 58845
L66595 59239
L66735 58845
" />
<path d="M66960 59182
L66989 59210
L66960 59239
L66932 59210
L66960 59182
L66960 59239
" />
<path d="M67551 59239
L67214 59239
" />
<path d="M67382 59239
L67382 58648
L67326 58732
L67270 58789
L67214 58817
" />
<path d="M68113 59239
L67776 59239
" />
<path d="M67945 59239
L67945 58648
L67888 58732
L67832 58789
L67776 58817
" />
</g>
<g style="fill:#000000; fill-opacity:0.0; 
stroke:#000000; stroke-width:60; stroke-opacity:1; 
stroke-linecap:round; stroke-linejoin:round;">
<path d="M41750 38500
L41750 39500
" />
<path d="M41750 39500
L39750 39500
" />
<path d="M39750 39500
L39750 38500
" />
<path d="M39750 38500
L41750 38500
" />
</g>
<g style="fill:#000000; fill-opacity:0.0; 
stroke:#000000; stroke-width:150; stroke-opacity:1; 
stroke-linecap:round; stroke-linejoin:round;">
<path d="M34750 59000
L34750 42000
" />
<path d="M34750 42000
L39750 42000
" />
<path d="M39750 42000
L39750 59000
" />
<path d="M39750 59000
L34750 59000
" />
<path d="M37750 59000
L37750 58500
" />
<path d="M37750 58500
L36750 58500
" />
<path d="M36750 58500
L36750 59000
" />
<path d="M61000 59000
L61000 58500
" />
<path d="M61000 58500
L62000 58500
" />
<path d="M62000 58500
L62000 59000
" />
<path d="M60500 59000
L60500 48000
" />
<path d="M60500 48000
L62500 48000
" />
<path d="M62500 48000
L62500 59000
" />
<path d="M62500 59000
L60500 59000
" />
<path d="M61000 47000
L61000 46500
" />
<path d="M61000 46500
L62000 46500
" />
<path d="M62000 46500
L62000 47000
" />
<path d="M60500 47000
L60500 36000
" />
<path d="M60500 36000
L62500 36000
" />
<path d="M62500 36000
L62500 47000
" />
<path d="M62500 47000
L60500 47000
" />
</g>
<g style="fill:#000000; fill-opacity:0.0; 
stroke:#000000; stroke-width:120; stroke-opacity:1; 
stroke-linecap:round; stroke-linejoin:round;">
<path d="M60520 59000
L62500 59000
" />
<path d="M62500 59000
L62500 60000
" />
<path d="M62500 60000
L60500 60000
" />
<path d="M60500 60000
L60500 59000
" />
<path d="M60500 59250
L60750 59000
" />
<path d="M56270 59000
L58250 59000
" />
<path d="M58250 59000
L58250 60000
" />
<path d="M58250 60000
L56250 60000
" />
<path d="M56250 60000
L56250 59000
" />
<path d="M56250 59250
L56500 59000
" />
<path d="M60520 47000
L62500 47000
" />
<path d="M62500 47000
L62500 48000
" />
<path d="M62500 48000
L60500 48000
" />
<path d="M60500 48000
L60500 47000
" />
<path d="M60500 47250
L60750 47000
" />
<path d="M33770 59000
L35750 59000
" />
<path d="M35750 59000
L35750 60000
" />
<path d="M35750 60000
L33750 60000
" />
<path d="M33750 60000
L33750 59000
" />
<path d="M33750 59250
L34000 59000
" />
<path d="M52980 37000
L51000 37000
" />
<path d="M51000 37000
L51000 36000
" />
<path d="M51000 36000
L53000 36000
" />
<path d="M53000 36000
L53000 37000
" />
<path d="M53000 36750
L52750 37000
" />
</g>
<g style="fill:#000000; fill-opacity:0.0; 
stroke:#000000; stroke-width:100; stroke-opacity:1; 
stroke-linecap:round; stroke-linejoin:round;">
<path d="M78750 42500
L78750 42000
" />
<path d="M78750 42000
L79750 42000
" />
<path d="M79750 42000
L79750 42500
" />
<path d="M78250 42500
L78250 38500
" />
<path d="M78250 38500
L80250 38500
" />
<path d="M80250 38500
L80250 42500
" />
<path d="M80250 42500
L78250 42500
" />
</g>
<g style="fill:#000000; fill-opacity:0.0; 
stroke:#000000; stroke-width:150; stroke-opacity:1; 
stroke-linecap:round; stroke-linejoin:round;">
<path d="M46750 38000
L46750 38500
" />
<path d="M46750 38500
L45750 38500
" />
<path d="M45750 38500
L45750 38000
" />
<path d="M48750 38000
L48750 59000
" />
<path d="M48750 59000
L43750 59000
" />
<path d="M43750 59000
L43750 38000
" />
<path d="M43750 38000
L48750 38000
" />
<path d="M73750 36000
L73750 36500
" />
<path d="M73750 36500
L72750 36500
" />
<path d="M72750 36500
L72750 36000
" />
<path d="M75750 36000
L75750 57000
" />
<path d="M75750 57000
L70750 57000
" />
<path d="M70750 57000
L70750 36000
" />
<path d="M70750 36000
L75750 36000
" />
<path d="M56750 59000
L56750 58500
" />
<path d="M56750 58500
L57750 58500
" />
<path d="M57750 58500
L57750 59000
" />
<path d="M56250 59000
L56250 48000
" />
<path d="M56250 48000
L58250 48000
" />
<path d="M58250 48000
L58250 59000
" />
<path d="M58250 59000
L56250 59000
" />
<path d="M53000 37000
L53000 45000
" />
<path d="M51000 45000
L51000 37000
" />
<path d="M51000 37000
L53000 37000
" />
<path d="M52500 37000
L52500 37500
" />
<path d="M52500 37500
L51500 37500
" />
<path d="M51500 37500
L51500 37000
" />
<path d="M53000 45000
L51000 45000
" />
</g>
<g style="fill:#000000; fill-opacity:0.0; 
stroke:#000000; stroke-width:50; stroke-opacity:1; 
stroke-linecap:round; stroke-linejoin:round;">
<circle cx="38500" cy="34500" r="1250" /> 
<circle cx="35252" cy="34502" r="1250" /> 
<circle cx="32002" cy="34502" r="1250" /> 
</g>
<g style="fill:#000000; fill-opacity:0.0; 
stroke:#000000; stroke-width:120; stroke-opacity:1; 
stroke-linecap:round; stroke-linejoin:round;">
<path d="M41250 46480
L41250 44500
" />
<path d="M41250 44500
L42250 44500
" />
<path d="M42250 44500
L42250 46500
" />
<path d="M42250 46500
L41250 46500
" />
<path d="M41500 46500
L41250 46250
" />
<path d="M78270 42500
L80250 42500
" />
<path d="M80250 42500
L80250 43500
" />
<path d="M80250 43500
L78250 43500
" />
<path d="M78250 43500
L78250 42500
" />
<path d="M78250 42750
L78500 42500
" />
<path d="M78250 44520
L78250 46500
" />
<path d="M78250 46500
L77250 46500
" />
<path d="M77250 46500
L77250 44500
" />
<path d="M77250 44500
L78250 44500
" />
<path d="M78000 44500
L78250 44750
" />
<path d="M68250 47480
L68250 45500
" />
<path d="M68250 45500
L69250 45500
" />
<path d="M69250 45500
L69250 47500
" />
<path d="M69250 47500
L68250 47500
" />
<path d="M68500 47500
L68250 47250
" />
<path d="M32001 32501
L32001 30501
" />
<path d="M33001 32501
L33001 30501
" />
<path d="M34001 32501
L34001 30501
" />
<path d="M35001 30501
L35001 24501
" />
<path d="M35001 24501
L31001 24501
" />
<path d="M31001 24501
L31001 30501
" />
<path d="M31001 30501
L35001 30501
" />
<path d="M34501 27501
L31001 27501
" />
<path d="M34501 27501
L35001 27501
" />
<path d="M36500 32500
L36500 30500
" />
<path d="M37500 32500
L37500 30500
" />
<path d="M38500 32500
L38500 30500
" />
<path d="M39500 30500
L39500 24500
" />
<path d="M39500 24500
L35500 24500
" />
<path d="M35500 24500
L35500 30500
" />
<path d="M35500 30500
L39500 30500
" />
<path d="M39000 27500
L35500 27500
" />
<path d="M39000 27500
L39500 27500
" />
</g>
<g style="fill:#000000; fill-opacity:0.0; 
stroke:#000000; stroke-width:59.0551; stroke-opacity:1; 
stroke-linecap:round; stroke-linejoin:round;">
<path d="M50116 26000
L50116 22850
" />
<path d="M50116 22850
L53383 22850
" />
<path d="M53383 22850
L53383 26000
" />
<path d="M49781 26000
L49781 28559
" />
<path d="M49781 26000
L53718 26000
" />
<path d="M53718 26000
L53718 28559
" />
</g>
<g style="fill:#000000; fill-opacity:0.0; 
stroke:#000000; stroke-width:120; stroke-opacity:1; 
stroke-linecap:round; stroke-linejoin:round;">
<path d="M65458 22750
L65458 20387
" />
<path d="M65458 20387
L59041 20387
" />
<path d="M59041 22750
L59041 20387
" />
<path d="M68312 22750
L56187 22750
" />
<path d="M56187 29049
L56187 22750
" />
<path d="M68312 29049
L56187 29049
" />
<path d="M68312 29049
L68312 22750
" />
<path d="M73750 29750
L73750 30150
" />
<path d="M73750 30150
L74150 30150
" />
<path d="M74150 30150
L74150 33350
" />
<path d="M74150 33350
L73350 33350
" />
<path d="M73350 33350
L73350 30150
" />
<path d="M73350 30150
L73750 30150
" />
<path d="M73950 30150
L74150 30350
" />
<path d="M73750 33750
L73750 33350
" />
<path d="M54750 29750
L54750 30150
" />
<path d="M54750 30150
L55150 30150
" />
<path d="M55150 30150
L55150 33350
" />
<path d="M55150 33350
L54350 33350
" />
<path d="M54350 33350
L54350 30150
" />
<path d="M54350 30150
L54750 30150
" />
<path d="M54950 30150
L55150 30350
" />
<path d="M54750 33750
L54750 33350
" />
<path d="M63500 33750
L63500 33350
" />
<path d="M63500 33350
L63100 33350
" />
<path d="M63100 33350
L63100 30150
" />
<path d="M63100 30150
L63900 30150
" />
<path d="M63900 30150
L63900 33350
" />
<path d="M63900 33350
L63500 33350
" />
<path d="M63300 33350
L63100 33150
" />
<path d="M63500 29750
L63500 30150
" />
<path d="M64500 33750
L64500 33350
" />
<path d="M64500 33350
L64100 33350
" />
<path d="M64100 33350
L64100 30150
" />
<path d="M64100 30150
L64900 30150
" />
<path d="M64900 30150
L64900 33350
" />
<path d="M64900 33350
L64500 33350
" />
<path d="M64300 33350
L64100 33150
" />
<path d="M64500 29750
L64500 30150
" />
<path d="M62500 33750
L62500 33350
" />
<path d="M62500 33350
L62100 33350
" />
<path d="M62100 33350
L62100 30150
" />
<path d="M62100 30150
L62900 30150
" />
<path d="M62900 30150
L62900 33350
" />
<path d="M62900 33350
L62500 33350
" />
<path d="M62300 33350
L62100 33150
" />
<path d="M62500 29750
L62500 30150
" />
<path d="M61500 33750
L61500 33350
" />
<path d="M61500 33350
L61100 33350
" />
<path d="M61100 33350
L61100 30150
" />
<path d="M61100 30150
L61900 30150
" />
<path d="M61900 30150
L61900 33350
" />
<path d="M61900 33350
L61500 33350
" />
<path d="M61300 33350
L61100 33150
" />
<path d="M61500 29750
L61500 30150
" />
<path d="M60500 33750
L60500 33350
" />
<path d="M60500 33350
L60100 33350
" />
<path d="M60100 33350
L60100 30150
" />
<path d="M60100 30150
L60900 30150
" />
<path d="M60900 30150
L60900 33350
" />
<path d="M60900 33350
L60500 33350
" />
<path d="M60300 33350
L60100 33150
" />
<path d="M60500 29750
L60500 30150
" />
<path d="M51750 29750
L51750 30150
" />
<path d="M51750 30150
L52150 30150
" />
<path d="M52150 30150
L52150 33350
" />
<path d="M52150 33350
L51350 33350
" />
<path d="M51350 33350
L51350 30150
" />
<path d="M51350 30150
L51750 30150
" />
<path d="M51950 30150
L52150 30350
" />
<path d="M51750 33750
L51750 33350
" />
<path d="M53750 29750
L53750 30150
" />
<path d="M53750 30150
L54150 30150
" />
<path d="M54150 30150
L54150 33350
" />
<path d="M54150 33350
L53350 33350
" />
<path d="M53350 33350
L53350 30150
" />
<path d="M53350 30150
L53750 30150
" />
<path d="M53950 30150
L54150 30350
" />
<path d="M53750 33750
L53750 33350
" />
<path d="M52750 29750
L52750 30150
" />
<path d="M52750 30150
L53150 30150
" />
<path d="M53150 30150
L53150 33350
" />
<path d="M53150 33350
L52350 33350
" />
<path d="M52350 33350
L52350 30150
" />
<path d="M52350 30150
L52750 30150
" />
<path d="M52950 30150
L53150 30350
" />
<path d="M52750 33750
L52750 33350
" />
<path d="M72750 29750
L72750 30150
" />
<path d="M72750 30150
L73150 30150
" />
<path d="M73150 30150
L73150 33350
" />
<path d="M73150 33350
L72350 33350
" />
<path d="M72350 33350
L72350 30150
" />
<path d="M72350 30150
L72750 30150
" />
<path d="M72950 30150
L73150 30350
" />
<path d="M72750 33750
L72750 33350
" />
<path d="M70750 29750
L70750 30150
" />
<path d="M70750 30150
L71150 30150
" />
<path d="M71150 30150
L71150 33350
" />
<path d="M71150 33350
L70350 33350
" />
<path d="M70350 33350
L70350 30150
" />
<path d="M70350 30150
L70750 30150
" />
<path d="M70950 30150
L71150 30350
" />
<path d="M70750 33750
L70750 33350
" />
<path d="M69750 29750
L69750 30150
" />
<path d="M69750 30150
L70150 30150
" />
<path d="M70150 30150
L70150 33350
" />
<path d="M70150 33350
L69350 33350
" />
<path d="M69350 33350
L69350 30150
" />
<path d="M69350 30150
L69750 30150
" />
<path d="M69950 30150
L70150 30350
" />
<path d="M69750 33750
L69750 33350
" />
<path d="M71750 29750
L71750 30150
" />
<path d="M71750 30150
L72150 30150
" />
<path d="M72150 30150
L72150 33350
" />
<path d="M72150 33350
L71350 33350
" />
<path d="M71350 33350
L71350 30150
" />
<path d="M71350 30150
L71750 30150
" />
<path d="M71950 30150
L72150 30350
" />
<path d="M71750 33750
L71750 33350
" />
<path d="M45521 23734
L41978 23734
" />
<path d="M45521 22750
L41978 22750
" />
<path d="M41978 28458
L41978 22750
" />
<path d="M45521 28458
L41978 28458
" />
<path d="M45521 28458
L45521 22750
" />
</g>
<g style="fill:#000000; fill-opacity:0.0; 
stroke:#000000; stroke-width:60; stroke-opacity:1; 
stroke-linecap:round; stroke-linejoin:round;">
<path d="M55250 37000
L55250 36000
" />
<path d="M55250 36000
L58250 36000
" />
<path d="M58250 36000
L58250 37000
" />
<path d="M58250 37000
L55250 37000
" />
<path d="M56250 36000
L56250 37000
" />
</g>
<g style="fill:#000000; fill-opacity:0.0; 
stroke:#000000; stroke-width:100; stroke-opacity:1; 
stroke-linecap:round; stroke-linejoin:round;">
<path d="M79250 25000
L75250 25000
" />
<path d="M79250 24000
L75250 24000
" />
<path d="M75250 24000
L75250 25000
" />
<path d="M79250 25000
L79250 24000
" />
</g>
<g style="fill:#000000; fill-opacity:0.0; 
stroke:#000000; stroke-width:120; stroke-opacity:1; 
stroke-linecap:round; stroke-linejoin:round;">
<path d="M29250 58500
L29250 38500
" />
<path d="M31250 58500
L31250 38500
" />
<path d="M31250 58500
L29250 58500
" />
<path d="M31250 38500
L29250 38500
" />
</g>
<g style="fill:#000000; fill-opacity:0.0; 
stroke:#000000; stroke-width:59.0551; stroke-opacity:1; 
stroke-linecap:round; stroke-linejoin:round;">
<path d="M69244 23458
L74755 23458
" />
</g>
<g style="fill:#000000; fill-opacity:0.0; 
stroke:#000000; stroke-width:150; stroke-opacity:1; 
stroke-linecap:round; stroke-linejoin:round;">
<path d="M74755 27631
L72000 27631
" />
<path d="M74755 27631
L69244 27631
" />
<path d="M69244 22750
L69244 27631
" />
<path d="M69244 22750
L74755 22750
" />
<path d="M74755 22750
L74755 27631
" />
</g>
<g style="fill:#000000; fill-opacity:0.0; 
stroke:#000000; stroke-width:60; stroke-opacity:1; 
stroke-linecap:round; stroke-linejoin:round;">
<path d="M46750 37000
L46750 36000
" />
<path d="M46750 36000
L49750 36000
" />
<path d="M49750 36000
L49750 37000
" />
<path d="M49750 37000
L46750 37000
" />
<path d="M47750 36000
L47750 37000
" />
</g>
<g style="fill:#000000; fill-opacity:0.0; 
stroke:#000000; stroke-width:98.4252; stroke-opacity:1; 
stroke-linecap:round; stroke-linejoin:round;">
<circle cx="77000" cy="31750" r="695.971" /> 
<path d="M78181 30568
L78181 32931
" />
<path d="M78181 32931
L75818 32931
" />
<path d="M75818 32931
L75818 30568
" />
<path d="M75818 30568
L78181 30568
" />
</g>
<g style="fill:#000000; fill-opacity:1.0; 
stroke:#000000; stroke-width:1; stroke-opacity:1; 
stroke-linecap:round; stroke-linejoin:round;">
<polyline style="fill-rule:evenodd;"
points="34416,41239
34430,41231
34463,41211
34509,41181
34563,41144
34618,41107
34662,41077
34694,41057
34707,41050
34714,41052
34740,41065
34778,41084
34799,41096
34834,41111
34851,41114
34854,41109
34867,41082
34887,41037
34913,40978
34942,40908
34974,40832
35006,40755
35037,40682
35064,40616
35085,40562
35100,40525
35105,40509
35103,40506
35086,40489
35056,40466
34991,40413
34926,40333
34887,40242
34874,40140
34885,40046
34922,39956
34985,39875
35061,39815
35151,39776
35251,39764
35347,39775
35439,39811
35520,39873
35555,39913
35602,39995
35629,40083
35632,40105
35628,40202
35599,40295
35548,40378
35477,40446
35468,40452
35435,40477
35413,40494
35396,40508
35519,40804
35539,40852
35573,40933
35603,41003
35626,41058
35643,41095
35650,41110
35651,41111
35662,41113
35684,41105
35726,41085
35753,41071
35785,41055
35799,41050
35811,41056
35841,41076
35885,41105
35938,41141
35989,41176
36035,41206
36069,41228
36085,41237
36088,41237
36103,41229
36129,41206
36170,41168
36227,41112
36236,41103
36283,41055
36321,41015
36346,40987
36356,40974
36356,40974
36347,40958
36326,40924
36295,40877
36257,40822
36159,40679
36213,40544
36230,40503
36251,40453
36266,40417
36274,40402
36289,40396
36326,40388
36379,40377
36443,40365
36504,40353
36559,40343
36598,40335
36616,40332
36620,40329
36624,40321
36626,40302
36628,40269
36628,40216
36628,40140
36628,40132
36628,40059
36626,40002
36624,39964
36622,39949
36622,39949
36605,39945
36566,39937
36511,39926
36446,39914
36442,39913
36376,39900
36322,39889
36284,39880
36267,39875
36264,39871
36251,39845
36232,39805
36211,39755
36189,39704
36171,39658
36159,39624
36155,39608
36155,39608
36165,39592
36187,39559
36219,39512
36257,39456
36260,39452
36297,39397
36328,39350
36348,39317
36356,39302
36355,39301
36343,39285
36315,39253
36275,39211
36226,39163
36211,39148
36158,39095
36120,39061
36097,39043
36086,39039
36086,39039
36069,39049
36034,39072
35987,39104
35931,39142
35927,39144
35872,39182
35826,39213
35794,39235
35780,39243
35777,39243
35755,39237
35716,39223
35667,39204
35616,39184
35570,39164
35535,39148
35519,39139
35518,39138
35513,39118
35503,39077
35491,39020
35479,38953
35477,38942
35464,38877
35454,38822
35446,38785
35442,38769
35433,38767
35401,38765
35352,38764
35292,38763
35230,38763
35169,38765
35117,38767
35080,38769
35065,38772
35064,38773
35058,38793
35049,38835
35038,38892
35025,38959
35023,38971
35010,39037
34999,39091
34991,39127
34987,39142
34981,39145
34954,39157
34910,39175
34856,39197
34730,39248
34575,39142
34561,39133
34505,39095
34460,39064
34428,39044
34415,39036
34414,39037
34398,39050
34367,39079
34326,39120
34277,39168
34241,39204
34198,39248
34171,39277
34157,39296
34151,39307
34153,39314
34163,39330
34185,39364
34217,39411
34255,39466
34286,39512
34319,39564
34341,39601
34349,39619
34347,39626
34336,39657
34318,39702
34294,39757
34241,39879
34160,39895
34112,39904
34044,39917
33979,39930
33877,39949
33873,40322
33889,40329
33904,40333
33942,40341
33996,40352
34059,40364
34113,40374
34167,40385
34206,40392
34224,40396
34228,40402
34242,40428
34261,40470
34283,40520
34305,40573
34324,40621
34337,40658
34342,40677
34335,40691
34314,40723
34284,40769
34247,40823
34210,40877
34179,40923
34157,40956
34148,40971
34153,40982
34174,41008
34215,41050
34276,41110
34286,41120
34334,41166
34375,41204
34403,41229
34416,41239
" /> 
</g>
<g style="fill:#000000; fill-opacity:1.0; 
stroke:#000000; stroke-width:120; stroke-opacity:1; 
stroke-linecap:round; stroke-linejoin:round;">
<path d="M79750 49000
L79750 49400
" />
<path d="M79750 49400
L80150 49400
" />
<path d="M80150 49400
L80150 52600
" />
<path d="M80150 52600
L79350 52600
" />
<path d="M79350 52600
L79350 49400
" />
<path d="M79350 49400
L79750 49400
" />
<path d="M79950 49400
L80150 49600
" />
<path d="M79750 53000
L79750 52600
" />
<path d="M78750 49000
L78750 49400
" />
<path d="M78750 49400
L79150 49400
" />
<path d="M79150 49400
L79150 52600
" />
<path d="M79150 52600
L78350 52600
" />
<path d="M78350 52600
L78350 49400
" />
<path d="M78350 49400
L78750 49400
" />
<path d="M78950 49400
L79150 49600
" />
<path d="M78750 53000
L78750 52600
" />
</g>
<g style="fill:#000000; fill-opacity:1.0; 
stroke:#000000; stroke-width:80; stroke-opacity:1; 
stroke-linecap:round; stroke-linejoin:round;">
<path d="M80370 58000
L80370 56500
" />
</g>
<g style="fill:#000000; fill-opacity:0.0; 
stroke:#000000; stroke-width:100; stroke-opacity:1; 
stroke-linecap:round; stroke-linejoin:round;">
<path d="M80349.6 56499.5 A1250 1250 0.0 1 0 80349.6 58000.5 " />
</g>
<g style="fill:#000000; fill-opacity:0.0; 
stroke:#000000; stroke-width:80; stroke-opacity:1; 
stroke-linecap:round; stroke-linejoin:round;">
<path d="M80370 55500
L80370 54000
" />
</g>
<g style="fill:#000000; fill-opacity:0.0; 
stroke:#000000; stroke-width:100; stroke-opacity:1; 
stroke-linecap:round; stroke-linejoin:round;">
<path d="M80349.6 53999.5 A1250 1250 0.0 1 0 80349.6 55500.5 " />
</g>
<g style="fill:#000000; fill-opacity:0.0; 
stroke:#000000; stroke-width:160; stroke-opacity:1; 
stroke-linecap:round; stroke-linejoin:round;">
<path d="M80500 47200
L80500 44800
" />
<path d="M78500 47200
L78500 44800
" />
</g>
<g style="fill:#000000; fill-opacity:0.0; 
stroke:#000000; stroke-width:60; stroke-opacity:1; 
stroke-linecap:round; stroke-linejoin:round;">
<path d="M79100 46130
L79900 46130
" />
<path d="M79900 46130
L79900 45880
" />
<path d="M79900 45880
L79100 45880
" />
<path d="M79100 45880
L79100 46130
" />
<path d="M79100 45730
L79500 45730
" />
<path d="M79100 46270
L79500 46270
" />
<path d="M79500 45730
L79500 45450
" />
<path d="M79500 45730
L79900 45730
" />
<path d="M79500 46270
L79500 46550
" />
<path d="M79500 46270
L79900 46270
" />
</g>
<g style="fill:#000000; fill-opacity:0.0; 
stroke:#000000; stroke-width:160; stroke-opacity:1; 
stroke-linecap:round; stroke-linejoin:round;">
<path d="M78500 47200 A1000 1000 0.0 0 0 80500 47200 " />
<path d="M80500 44800 A1000 1000 0.0 0 0 78500 44800 " />
</g>
<g style="fill:#000000; fill-opacity:0.0; 
stroke:#000000; stroke-width:150; stroke-opacity:1; 
stroke-linecap:round; stroke-linejoin:round;">
<path d="M42250 30250
L50250 30250
" />
<path d="M50250 34250
L42250 34250
" />
<path d="M50250 30250
L50250 34250
" />
<path d="M42250 30250
L42250 34250
" />
</g>
<g style="fill:#000000; fill-opacity:0.0; 
stroke:#000000; stroke-width:60; stroke-opacity:1; 
stroke-linecap:round; stroke-linejoin:round;">
<path d="M40192 39871
L40192 39571
L40364 39871
L40364 39571
" />
<path d="M40507 39871
L40507 39571
L40607 39785
L40707 39571
L40707 39871
" />
<path d="M40907 39571
L40964 39571
L40992 39585
L41021 39614
L41035 39671
L41035 39771
L41021 39828
L40992 39857
L40964 39871
L40907 39871
L40878 39857
L40850 39828
L40835 39771
L40835 39671
L40850 39614
L40878 39585
L40907 39571
" />
<path d="M41150 39857
L41192 39871
L41264 39871
L41292 39857
L41307 39842
L41321 39814
L41321 39785
L41307 39757
L41292 39742
L41264 39728
L41207 39714
L41178 39700
L41164 39685
L41150 39657
L41150 39628
L41164 39600
L41178 39585
L41207 39571
L41278 39571
L41321 39585
" />
</g>
<g style="fill:#000000; fill-opacity:0.0; 
stroke:#000000; stroke-width:120; stroke-opacity:1; 
stroke-linecap:round; stroke-linejoin:round;">
<path d="M37333 55183
L37333 54849
" />
<path d="M37533 55249
L36833 55016
L37533 54783
" />
<path d="M37500 54583
L37533 54483
L37533 54316
L37500 54249
L37466 54216
L37400 54183
L37333 54183
L37266 54216
L37233 54249
L37200 54316
L37166 54449
L37133 54516
L37100 54549
L37033 54583
L36966 54583
L36900 54549
L36866 54516
L36833 54449
L36833 54283
L36866 54183
" />
<path d="M36833 53583
L36833 53716
L36866 53783
L36900 53816
L37000 53883
L37133 53916
L37400 53916
L37466 53883
L37500 53849
L37533 53783
L37533 53649
L37500 53583
L37466 53549
L37400 53516
L37233 53516
L37166 53549
L37133 53583
L37100 53649
L37100 53783
L37133 53849
L37166 53883
L37233 53916
" />
<path d="M37466 52816
L37500 52849
L37533 52949
L37533 53016
L37500 53116
L37433 53183
L37366 53216
L37233 53249
L37133 53249
L37000 53216
L36933 53183
L36866 53116
L36833 53016
L36833 52949
L36866 52849
L36900 52816
" />
<path d="M37533 52149
L37533 52549
" />
<path d="M37533 52349
L36833 52349
L36933 52416
L37000 52483
L37033 52549
" />
<path d="M36833 51716
L36833 51650
L36866 51583
L36900 51550
L36966 51516
L37100 51483
L37266 51483
L37400 51516
L37466 51550
L37500 51583
L37533 51650
L37533 51716
L37500 51783
L37466 51816
L37400 51850
L37266 51883
L37100 51883
L36966 51850
L36900 51816
L36866 51783
L36833 51716
" />
<path d="M36833 51050
L36833 50983
L36866 50916
L36900 50883
L36966 50850
L37100 50816
L37266 50816
L37400 50850
L37466 50883
L37500 50916
L37533 50983
L37533 51050
L37500 51116
L37466 51150
L37400 51183
L37266 51216
L37100 51216
L36966 51183
L36900 51150
L36866 51116
L36833 51050
" />
<path d="M37133 50416
L37100 50483
L37066 50516
L37000 50550
L36966 50550
L36900 50516
L36866 50483
L36833 50416
L36833 50283
L36866 50216
L36900 50183
L36966 50150
L37000 50150
L37066 50183
L37100 50216
L37133 50283
L37133 50416
L37166 50483
L37200 50516
L37266 50550
L37400 50550
L37466 50516
L37500 50483
L37533 50416
L37533 50283
L37500 50216
L37466 50183
L37400 50150
L37266 50150
L37200 50183
L37166 50216
L37133 50283
" />
<path d="M37266 49850
L37266 49316
" />
<path d="M36833 48650
L36833 48983
L37166 49016
L37133 48983
L37100 48916
L37100 48750
L37133 48683
L37166 48650
L37233 48616
L37400 48616
L37466 48650
L37500 48683
L37533 48750
L37533 48916
L37500 48983
L37466 49016
" />
<path d="M36833 47983
L36833 48316
L37166 48350
L37133 48316
L37100 48250
L37100 48083
L37133 48016
L37166 47983
L37233 47950
L37400 47950
L37466 47983
L37500 48016
L37533 48083
L37533 48250
L37500 48316
L37466 48350
" />
<path d="M37533 47650
L36833 47650
L36833 47383
L36866 47316
L36900 47283
L36966 47250
L37066 47250
L37133 47283
L37166 47316
L37200 47383
L37200 47650
" />
<path d="M37466 46550
L37500 46583
L37533 46683
L37533 46750
L37500 46850
L37433 46916
L37366 46950
L37233 46983
L37133 46983
L37000 46950
L36933 46916
L36866 46850
L36833 46750
L36833 46683
L36866 46583
L36900 46550
" />
<path d="M37533 46250
L36833 46250
L37533 45850
L36833 45850
" />
</g>
<g style="fill:#000000; fill-opacity:0.0; 
stroke:#000000; stroke-width:112.5; stroke-opacity:1; 
stroke-linecap:round; stroke-linejoin:round;">
<path d="M61083 55203
L61083 54903
L61783 55096
" />
<path d="M61316 54539
L61783 54539
" />
<path d="M61050 54646
L61550 54753
L61550 54474
" />
<path d="M61783 54303
L61083 54303
" />
<path d="M61416 54303
L61416 54046
" />
<path d="M61783 54046
L61083 54046
" />
<path d="M61716 53574
L61750 53596
L61783 53660
L61783 53703
L61750 53767
L61683 53810
L61616 53832
L61483 53853
L61383 53853
L61250 53832
L61183 53810
L61116 53767
L61083 53703
L61083 53660
L61116 53596
L61150 53574
" />
<path d="M61150 53403
L61116 53382
L61083 53339
L61083 53232
L61116 53189
L61150 53167
L61216 53146
L61283 53146
L61383 53167
L61783 53424
L61783 53146
" />
<path d="M61316 52760
L61783 52760
" />
<path d="M61050 52867
L61550 52975
L61550 52696
" />
<path d="M61316 52332
L61783 52332
" />
<path d="M61050 52439
L61550 52546
L61550 52267
" />
<path d="M61783 52096
L61083 52096
L61783 51839
L61083 51839
" />
</g>
<g style="fill:#000000; fill-opacity:0.0; 
stroke:#000000; stroke-width:120; stroke-opacity:1; 
stroke-linecap:round; stroke-linejoin:round;">
</g>
<g style="fill:#000000; fill-opacity:0.0; 
stroke:#000000; stroke-width:112.5; stroke-opacity:1; 
stroke-linecap:round; stroke-linejoin:round;">
<path d="M61083 43203
L61083 42903
L61783 43096
" />
<path d="M61316 42539
L61783 42539
" />
<path d="M61050 42646
L61550 42753
L61550 42474
" />
<path d="M61783 42303
L61083 42303
" />
<path d="M61416 42303
L61416 42046
" />
<path d="M61783 42046
L61083 42046
" />
<path d="M61716 41574
L61750 41596
L61783 41660
L61783 41703
L61750 41767
L61683 41810
L61616 41832
L61483 41853
L61383 41853
L61250 41832
L61183 41810
L61116 41767
L61083 41703
L61083 41660
L61116 41596
L61150 41574
" />
<path d="M61150 41403
L61116 41382
L61083 41339
L61083 41232
L61116 41189
L61150 41167
L61216 41146
L61283 41146
L61383 41167
L61783 41424
L61783 41146
" />
<path d="M61316 40760
L61783 40760
" />
<path d="M61050 40867
L61550 40975
L61550 40696
" />
<path d="M61316 40332
L61783 40332
" />
<path d="M61050 40439
L61550 40546
L61550 40267
" />
<path d="M61783 40096
L61083 40096
L61783 39839
L61083 39839
" />
</g>
<g style="fill:#000000; fill-opacity:0.0; 
stroke:#000000; stroke-width:120; stroke-opacity:1; 
stroke-linecap:round; stroke-linejoin:round;">
</g>
<g style="fill:#000000; fill-opacity:0.0; 
stroke:#000000; stroke-width:80; stroke-opacity:1; 
stroke-linecap:round; stroke-linejoin:round;">
<path d="M60161 59697
L60161 59926
" />
<path d="M60161 59811
L59761 59811
L59819 59849
L59857 59888
L59876 59926
" />
<path d="M59761 59449
L59761 59411
L59780 59373
L59800 59354
L59838 59335
L59914 59316
L60009 59316
L60085 59335
L60123 59354
L60142 59373
L60161 59411
L60161 59449
L60142 59488
L60123 59507
L60085 59526
L60009 59545
L59914 59545
L59838 59526
L59800 59507
L59780 59488
L59761 59449
" />
<path d="M59761 59069
L59761 59030
L59780 58992
L59800 58973
L59838 58954
L59914 58935
L60009 58935
L60085 58954
L60123 58973
L60142 58992
L60161 59030
L60161 59069
L60142 59107
L60123 59126
L60085 59145
L60009 59164
L59914 59164
L59838 59145
L59800 59126
L59780 59107
L59761 59069
" />
<path d="M59895 58764
L60161 58764
" />
<path d="M59933 58764
L59914 58745
L59895 58707
L59895 58650
L59914 58611
L59952 58592
L60161 58592
" />
<path d="M55911 59697
L55911 59926
" />
<path d="M55911 59811
L55511 59811
L55569 59849
L55607 59888
L55626 59926
" />
<path d="M55511 59449
L55511 59411
L55530 59373
L55550 59354
L55588 59335
L55664 59316
L55759 59316
L55835 59335
L55873 59354
L55892 59373
L55911 59411
L55911 59449
L55892 59488
L55873 59507
L55835 59526
L55759 59545
L55664 59545
L55588 59526
L55550 59507
L55530 59488
L55511 59449
" />
<path d="M55511 59069
L55511 59030
L55530 58992
L55550 58973
L55588 58954
L55664 58935
L55759 58935
L55835 58954
L55873 58973
L55892 58992
L55911 59030
L55911 59069
L55892 59107
L55873 59126
L55835 59145
L55759 59164
L55664 59164
L55588 59145
L55550 59126
L55530 59107
L55511 59069
" />
<path d="M55645 58764
L55911 58764
" />
<path d="M55683 58764
L55664 58745
L55645 58707
L55645 58650
L55664 58611
L55702 58592
L55911 58592
" />
<path d="M60161 47947
L60161 48176
" />
<path d="M60161 48061
L59761 48061
L59819 48099
L59857 48138
L59876 48176
" />
<path d="M59761 47699
L59761 47661
L59780 47623
L59800 47604
L59838 47585
L59914 47566
L60009 47566
L60085 47585
L60123 47604
L60142 47623
L60161 47661
L60161 47699
L60142 47738
L60123 47757
L60085 47776
L60009 47795
L59914 47795
L59838 47776
L59800 47757
L59780 47738
L59761 47699
" />
<path d="M59761 47319
L59761 47280
L59780 47242
L59800 47223
L59838 47204
L59914 47185
L60009 47185
L60085 47204
L60123 47223
L60142 47242
L60161 47280
L60161 47319
L60142 47357
L60123 47376
L60085 47395
L60009 47414
L59914 47414
L59838 47395
L59800 47376
L59780 47357
L59761 47319
" />
<path d="M59895 47014
L60161 47014
" />
<path d="M59933 47014
L59914 46995
L59895 46957
L59895 46900
L59914 46861
L59952 46842
L60161 46842
" />
<path d="M33411 59947
L33411 60176
" />
<path d="M33411 60061
L33011 60061
L33069 60099
L33107 60138
L33126 60176
" />
<path d="M33011 59699
L33011 59661
L33030 59623
L33050 59604
L33088 59585
L33164 59566
L33259 59566
L33335 59585
L33373 59604
L33392 59623
L33411 59661
L33411 59699
L33392 59738
L33373 59757
L33335 59776
L33259 59795
L33164 59795
L33088 59776
L33050 59757
L33030 59738
L33011 59699
" />
<path d="M33011 59319
L33011 59280
L33030 59242
L33050 59223
L33088 59204
L33164 59185
L33259 59185
L33335 59204
L33373 59223
L33392 59242
L33411 59280
L33411 59319
L33392 59357
L33373 59376
L33335 59395
L33259 59414
L33164 59414
L33088 59395
L33050 59376
L33030 59357
L33011 59319
" />
<path d="M33145 59014
L33411 59014
" />
<path d="M33183 59014
L33164 58995
L33145 58957
L33145 58900
L33164 58861
L33202 58842
L33411 58842
" />
<path d="M50661 37197
L50661 37426
" />
<path d="M50661 37311
L50261 37311
L50319 37349
L50357 37388
L50376 37426
" />
<path d="M50261 36949
L50261 36911
L50280 36873
L50300 36854
L50338 36835
L50414 36816
L50509 36816
L50585 36835
L50623 36854
L50642 36873
L50661 36911
L50661 36949
L50642 36988
L50623 37007
L50585 37026
L50509 37045
L50414 37045
L50338 37026
L50300 37007
L50280 36988
L50261 36949
" />
<path d="M50261 36569
L50261 36530
L50280 36492
L50300 36473
L50338 36454
L50414 36435
L50509 36435
L50585 36454
L50623 36473
L50642 36492
L50661 36530
L50661 36569
L50642 36607
L50623 36626
L50585 36645
L50509 36664
L50414 36664
L50338 36645
L50300 36626
L50280 36607
L50261 36569
" />
<path d="M50395 36264
L50661 36264
" />
<path d="M50433 36264
L50414 36245
L50395 36207
L50395 36150
L50414 36111
L50452 36092
L50661 36092
" />
<path d="M79000 41738
L78976 41719
L78952 41680
L78952 41585
L78976 41547
L79000 41528
L79047 41509
L79095 41509
L79166 41528
L79452 41757
L79452 41509
" />
<path d="M79119 41166
L79452 41166
" />
<path d="M78928 41261
L79285 41357
L79285 41109
" />
<path d="M79452 40766
L79452 40957
L78952 40957
" />
<path d="M79404 40404
L79428 40423
L79452 40480
L79452 40519
L79428 40576
L79380 40614
L79333 40633
L79238 40652
L79166 40652
L79071 40633
L79023 40614
L78976 40576
L78952 40519
L78952 40480
L78976 40423
L79000 40404
" />
<path d="M78952 40042
L78952 40233
L79190 40252
L79166 40233
L79142 40195
L79142 40100
L79166 40061
L79190 40042
L79238 40023
L79357 40023
L79404 40042
L79428 40061
L79452 40100
L79452 40195
L79428 40233
L79404 40252
" />
<path d="M79452 39642
L79452 39871
" />
<path d="M79452 39757
L78952 39757
L79023 39795
L79071 39833
L79095 39871
" />
<path d="M79000 39490
L78976 39471
L78952 39433
L78952 39338
L78976 39300
L79000 39280
L79047 39261
L79095 39261
L79166 39280
L79452 39509
L79452 39261
" />
</g>
<g style="fill:#000000; fill-opacity:0.0; 
stroke:#000000; stroke-width:120; stroke-opacity:1; 
stroke-linecap:round; stroke-linejoin:round;">
<path d="M45833 50183
L45833 50316
L45866 50383
L45900 50416
L46000 50483
L46133 50516
L46400 50516
L46466 50483
L46500 50449
L46533 50383
L46533 50249
L46500 50183
L46466 50149
L46400 50116
L46233 50116
L46166 50149
L46133 50183
L46100 50249
L46100 50383
L46133 50449
L46166 50483
L46233 50516
" />
<path d="M45833 49483
L45833 49816
L46166 49849
L46133 49816
L46100 49749
L46100 49583
L46133 49516
L46166 49483
L46233 49449
L46400 49449
L46466 49483
L46500 49516
L46533 49583
L46533 49749
L46500 49816
L46466 49849
" />
<path d="M46766 48950
L46766 49116
L45766 49116
L45766 48950
" />
<path d="M46466 48283
L46500 48316
L46533 48416
L46533 48483
L46500 48583
L46433 48650
L46366 48683
L46233 48716
L46133 48716
L46000 48683
L45933 48650
L45866 48583
L45833 48483
L45833 48416
L45866 48316
L45900 48283
" />
<path d="M46766 48050
L46766 47883
L45766 47883
L45766 48050
" />
<path d="M45833 47383
L45833 47316
L45866 47250
L45900 47216
L45966 47183
L46100 47150
L46266 47150
L46400 47183
L46466 47216
L46500 47250
L46533 47316
L46533 47383
L46500 47450
L46466 47483
L46400 47516
L46266 47550
L46100 47550
L45966 47516
L45900 47483
L45866 47450
L45833 47383
" />
<path d="M45900 46883
L45866 46850
L45833 46783
L45833 46616
L45866 46550
L45900 46516
L45966 46483
L46033 46483
L46133 46516
L46533 46916
L46533 46483
" />
<path d="M73533 48316
L72833 48316
L72833 48049
L72866 47983
L72900 47949
L72966 47916
L73066 47916
L73133 47949
L73166 47983
L73200 48049
L73200 48316
" />
<path d="M73133 47516
L73100 47583
L73066 47616
L73000 47649
L72966 47649
L72900 47616
L72866 47583
L72833 47516
L72833 47383
L72866 47316
L72900 47283
L72966 47249
L73000 47249
L73066 47283
L73100 47316
L73133 47383
L73133 47516
L73166 47583
L73200 47616
L73266 47649
L73400 47649
L73466 47616
L73500 47583
L73533 47516
L73533 47383
L73500 47316
L73466 47283
L73400 47249
L73266 47249
L73200 47283
L73166 47316
L73133 47383
" />
<path d="M72833 47016
L73533 46550
" />
<path d="M72833 46550
L73533 47016
" />
<path d="M72833 46350
L72833 45916
L73100 46150
L73100 46050
L73133 45983
L73166 45950
L73233 45916
L73400 45916
L73466 45950
L73500 45983
L73533 46050
L73533 46250
L73500 46316
L73466 46350
" />
<path d="M72900 45650
L72866 45616
L72833 45550
L72833 45383
L72866 45316
L72900 45283
L72966 45250
L73033 45250
L73133 45283
L73533 45683
L73533 45250
" />
<path d="M73333 44983
L73333 44650
" />
<path d="M73533 45050
L72833 44816
L73533 44583
" />
</g>
<g style="fill:#000000; fill-opacity:0.0; 
stroke:#000000; stroke-width:112.5; stroke-opacity:1; 
stroke-linecap:round; stroke-linejoin:round;">
<path d="M56833 55203
L56833 54903
L57533 55096
" />
<path d="M57066 54539
L57533 54539
" />
<path d="M56800 54646
L57300 54753
L57300 54474
" />
<path d="M57533 54303
L56833 54303
" />
<path d="M57166 54303
L57166 54046
" />
<path d="M57533 54046
L56833 54046
" />
<path d="M57466 53574
L57500 53596
L57533 53660
L57533 53703
L57500 53767
L57433 53810
L57366 53832
L57233 53853
L57133 53853
L57000 53832
L56933 53810
L56866 53767
L56833 53703
L56833 53660
L56866 53596
L56900 53574
" />
<path d="M56833 53167
L56833 53382
L57166 53403
L57133 53382
L57100 53339
L57100 53232
L57133 53189
L57166 53167
L57233 53146
L57400 53146
L57466 53167
L57500 53189
L57533 53232
L57533 53339
L57500 53382
L57466 53403
" />
<path d="M56833 52996
L56833 52696
L57533 52889
" />
<path d="M57066 52332
L57533 52332
" />
<path d="M56800 52439
L57300 52546
L57300 52267
" />
<path d="M57533 52096
L56833 52096
L57533 51839
L56833 51839
" />
</g>
<g style="fill:#000000; fill-opacity:0.0; 
stroke:#000000; stroke-width:120; stroke-opacity:1; 
stroke-linecap:round; stroke-linejoin:round;">
</g>
<g style="fill:#000000; fill-opacity:0.0; 
stroke:#000000; stroke-width:112.5; stroke-opacity:1; 
stroke-linecap:round; stroke-linejoin:round;">
<path d="M51642 42489
L51642 42189
L52242 42382
" />
<path d="M51842 41825
L52242 41825
" />
<path d="M51614 41932
L52042 42039
L52042 41760
" />
<path d="M52242 41589
L51642 41589
" />
<path d="M51928 41589
L51928 41332
" />
<path d="M52242 41332
L51642 41332
" />
<path d="M52185 40860
L52214 40882
L52242 40946
L52242 40989
L52214 41053
L52157 41096
L52100 41117
L51985 41139
L51900 41139
L51785 41117
L51728 41096
L51671 41053
L51642 40989
L51642 40946
L51671 40882
L51700 40860
" />
<path d="M51642 40582
L51642 40539
L51671 40496
L51700 40475
L51757 40453
L51871 40432
L52014 40432
L52128 40453
L52185 40475
L52214 40496
L52242 40539
L52242 40582
L52214 40625
L52185 40646
L52128 40667
L52014 40689
L51871 40689
L51757 40667
L51700 40646
L51671 40625
L51642 40582
" />
<path d="M51642 40025
L51642 40239
L51928 40260
L51900 40239
L51871 40196
L51871 40089
L51900 40046
L51928 40025
L51985 40003
L52128 40003
L52185 40025
L52214 40046
L52242 40089
L52242 40196
L52214 40239
L52185 40260
" />
<path d="M52242 39810
L51642 39810
L52242 39553
L51642 39553
" />
</g>
<g style="fill:#000000; fill-opacity:0.0; 
stroke:#000000; stroke-width:120; stroke-opacity:1; 
stroke-linecap:round; stroke-linejoin:round;">
</g>
<g style="fill:#000000; fill-opacity:0.0; 
stroke:#000000; stroke-width:80; stroke-opacity:1; 
stroke-linecap:round; stroke-linejoin:round;">
<path d="M37525 33182
L37325 33182
" />
<path d="M37425 33182
L37425 32732
L37391 32796
L37358 32839
L37325 32860
" />
<path d="M37741 32732
L37775 32732
L37808 32753
L37825 32775
L37841 32817
L37858 32903
L37858 33010
L37841 33096
L37825 33139
L37808 33160
L37775 33182
L37741 33182
L37708 33160
L37691 33139
L37675 33096
L37658 33010
L37658 32903
L37675 32817
L37691 32775
L37708 32753
L37741 32732
" />
<path d="M38158 32882
L38158 33182
" />
<path d="M38008 32882
L38008 33117
L38025 33160
L38058 33182
L38108 33182
L38141 33160
L38158 33139
" />
</g>
<g style="fill:#000000; fill-opacity:0.0; 
stroke:#000000; stroke-width:120; stroke-opacity:1; 
stroke-linecap:round; stroke-linejoin:round;">
</g>
<g style="fill:#000000; fill-opacity:0.0; 
stroke:#000000; stroke-width:112.5; stroke-opacity:1; 
stroke-linecap:round; stroke-linejoin:round;">
<path d="M38510 33671
L38510 33328
" />
<path d="M38682 33500
L38339 33500
" />
</g>
<g style="fill:#000000; fill-opacity:0.0; 
stroke:#000000; stroke-width:120; stroke-opacity:1; 
stroke-linecap:round; stroke-linejoin:round;">
</g>
<g style="fill:#000000; fill-opacity:0.0; 
stroke:#000000; stroke-width:80; stroke-opacity:1; 
stroke-linecap:round; stroke-linejoin:round;">
<path d="M34826 32776
L34843 32755
L34876 32734
L34960 32734
L34993 32755
L35010 32776
L35026 32819
L35026 32862
L35010 32926
L34810 33184
L35026 33184
" />
<path d="M35160 32776
L35176 32755
L35210 32734
L35293 32734
L35326 32755
L35343 32776
L35360 32819
L35360 32862
L35343 32926
L35143 33184
L35360 33184
" />
<path d="M35660 32884
L35660 33184
" />
<path d="M35510 32884
L35510 33119
L35526 33162
L35560 33184
L35610 33184
L35643 33162
L35660 33141
" />
</g>
<g style="fill:#000000; fill-opacity:0.0; 
stroke:#000000; stroke-width:120; stroke-opacity:1; 
stroke-linecap:round; stroke-linejoin:round;">
</g>
<g style="fill:#000000; fill-opacity:0.0; 
stroke:#000000; stroke-width:112.5; stroke-opacity:1; 
stroke-linecap:round; stroke-linejoin:round;">
<path d="M35262 33673
L35262 33330
" />
<path d="M35434 33501
L35091 33501
" />
</g>
<g style="fill:#000000; fill-opacity:0.0; 
stroke:#000000; stroke-width:120; stroke-opacity:1; 
stroke-linecap:round; stroke-linejoin:round;">
</g>
<g style="fill:#000000; fill-opacity:0.0; 
stroke:#000000; stroke-width:80; stroke-opacity:1; 
stroke-linecap:round; stroke-linejoin:round;">
<path d="M31026 33184
L30826 33184
" />
<path d="M30926 33184
L30926 32734
L30893 32798
L30860 32841
L30826 32862
" />
<path d="M31243 32734
L31276 32734
L31310 32755
L31326 32776
L31343 32819
L31360 32905
L31360 33012
L31343 33098
L31326 33141
L31310 33162
L31276 33184
L31243 33184
L31210 33162
L31193 33141
L31176 33098
L31160 33012
L31160 32905
L31176 32819
L31193 32776
L31210 32755
L31243 32734
" />
<path d="M31660 32884
L31660 33184
" />
<path d="M31510 32884
L31510 33119
L31526 33162
L31560 33184
L31610 33184
L31643 33162
L31660 33141
" />
</g>
<g style="fill:#000000; fill-opacity:0.0; 
stroke:#000000; stroke-width:120; stroke-opacity:1; 
stroke-linecap:round; stroke-linejoin:round;">
</g>
<g style="fill:#000000; fill-opacity:0.0; 
stroke:#000000; stroke-width:112.5; stroke-opacity:1; 
stroke-linecap:round; stroke-linejoin:round;">
<path d="M32012 33673
L32012 33330
" />
<path d="M32184 33501
L31841 33501
" />
</g>
<g style="fill:#000000; fill-opacity:0.0; 
stroke:#000000; stroke-width:120; stroke-opacity:1; 
stroke-linecap:round; stroke-linejoin:round;">
</g>
<g style="fill:#000000; fill-opacity:0.0; 
stroke:#000000; stroke-width:80; stroke-opacity:1; 
stroke-linecap:round; stroke-linejoin:round;">
<path d="M41011 45947
L41011 46176
" />
<path d="M41011 46061
L40611 46061
L40669 46099
L40707 46138
L40726 46176
" />
<path d="M40611 45699
L40611 45661
L40630 45623
L40650 45604
L40688 45585
L40764 45566
L40859 45566
L40935 45585
L40973 45604
L40992 45623
L41011 45661
L41011 45699
L40992 45738
L40973 45757
L40935 45776
L40859 45795
L40764 45795
L40688 45776
L40650 45757
L40630 45738
L40611 45699
" />
<path d="M40611 45319
L40611 45280
L40630 45242
L40650 45223
L40688 45204
L40764 45185
L40859 45185
L40935 45204
L40973 45223
L40992 45242
L41011 45280
L41011 45319
L40992 45357
L40973 45376
L40935 45395
L40859 45414
L40764 45414
L40688 45395
L40650 45376
L40630 45357
L40611 45319
" />
<path d="M40745 45014
L41011 45014
" />
<path d="M40783 45014
L40764 44995
L40745 44957
L40745 44900
L40764 44861
L40802 44842
L41011 44842
" />
<path d="M80911 43697
L80911 43926
" />
<path d="M80911 43811
L80511 43811
L80569 43849
L80607 43888
L80626 43926
" />
<path d="M80511 43449
L80511 43411
L80530 43373
L80550 43354
L80588 43335
L80664 43316
L80759 43316
L80835 43335
L80873 43354
L80892 43373
L80911 43411
L80911 43449
L80892 43488
L80873 43507
L80835 43526
L80759 43545
L80664 43545
L80588 43526
L80550 43507
L80530 43488
L80511 43449
" />
<path d="M80511 43069
L80511 43030
L80530 42992
L80550 42973
L80588 42954
L80664 42935
L80759 42935
L80835 42954
L80873 42973
L80892 42992
L80911 43030
L80911 43069
L80892 43107
L80873 43126
L80835 43145
L80759 43164
L80664 43164
L80588 43145
L80550 43126
L80530 43107
L80511 43069
" />
<path d="M80645 42764
L80911 42764
" />
<path d="M80683 42764
L80664 42745
L80645 42707
L80645 42650
L80664 42611
L80702 42592
L80911 42592
" />
<path d="M77161 45947
L77161 46176
" />
<path d="M77161 46061
L76761 46061
L76819 46099
L76857 46138
L76876 46176
" />
<path d="M76761 45699
L76761 45661
L76780 45623
L76800 45604
L76838 45585
L76914 45566
L77009 45566
L77085 45585
L77123 45604
L77142 45623
L77161 45661
L77161 45699
L77142 45738
L77123 45757
L77085 45776
L77009 45795
L76914 45795
L76838 45776
L76800 45757
L76780 45738
L76761 45699
" />
<path d="M76761 45319
L76761 45280
L76780 45242
L76800 45223
L76838 45204
L76914 45185
L77009 45185
L77085 45204
L77123 45223
L77142 45242
L77161 45280
L77161 45319
L77142 45357
L77123 45376
L77085 45395
L77009 45414
L76914 45414
L76838 45395
L76800 45376
L76780 45357
L76761 45319
" />
<path d="M76895 45014
L77161 45014
" />
<path d="M76933 45014
L76914 44995
L76895 44957
L76895 44900
L76914 44861
L76952 44842
L77161 44842
" />
<path d="M68011 46947
L68011 47176
" />
<path d="M68011 47061
L67611 47061
L67669 47099
L67707 47138
L67726 47176
" />
<path d="M67611 46699
L67611 46661
L67630 46623
L67650 46604
L67688 46585
L67764 46566
L67859 46566
L67935 46585
L67973 46604
L67992 46623
L68011 46661
L68011 46699
L67992 46738
L67973 46757
L67935 46776
L67859 46795
L67764 46795
L67688 46776
L67650 46757
L67630 46738
L67611 46699
" />
<path d="M67611 46319
L67611 46280
L67630 46242
L67650 46223
L67688 46204
L67764 46185
L67859 46185
L67935 46204
L67973 46223
L67992 46242
L68011 46280
L68011 46319
L67992 46357
L67973 46376
L67935 46395
L67859 46414
L67764 46414
L67688 46395
L67650 46376
L67630 46357
L67611 46319
" />
<path d="M67745 46014
L68011 46014
" />
<path d="M67783 46014
L67764 45995
L67745 45957
L67745 45900
L67764 45861
L67802 45842
L68011 45842
" />
<path d="M31411 28413
L31221 28413
L31221 28013
" />
<path d="M31544 28413
L31544 28013
L31678 28299
L31811 28013
L31811 28413
" />
<path d="M32211 28413
L31982 28413
" />
<path d="M32097 28413
L32097 28013
L32059 28071
L32021 28109
L31982 28128
" />
<path d="M32459 28013
L32497 28013
L32535 28032
L32554 28051
L32573 28090
L32592 28166
L32592 28261
L32573 28337
L32554 28375
L32535 28394
L32497 28413
L32459 28413
L32421 28394
L32401 28375
L32382 28337
L32363 28261
L32363 28166
L32382 28090
L32401 28051
L32421 28032
L32459 28013
" />
<path d="M32821 28185
L32782 28166
L32763 28147
L32744 28109
L32744 28090
L32763 28051
L32782 28032
L32821 28013
L32897 28013
L32935 28032
L32954 28051
L32973 28090
L32973 28109
L32954 28147
L32935 28166
L32897 28185
L32821 28185
L32782 28204
L32763 28223
L32744 28261
L32744 28337
L32763 28375
L32782 28394
L32821 28413
L32897 28413
L32935 28394
L32954 28375
L32973 28337
L32973 28261
L32954 28223
L32935 28204
L32897 28185
" />
<path d="M33316 28013
L33240 28013
L33201 28032
L33182 28051
L33144 28109
L33125 28185
L33125 28337
L33144 28375
L33163 28394
L33201 28413
L33278 28413
L33316 28394
L33335 28375
L33354 28337
L33354 28242
L33335 28204
L33316 28185
L33278 28166
L33201 28166
L33163 28185
L33144 28204
L33125 28242
" />
<path d="M33525 28261
L33830 28261
" />
<path d="M34211 28013
L34021 28013
L34001 28204
L34021 28185
L34059 28166
L34154 28166
L34192 28185
L34211 28204
L34230 28242
L34230 28337
L34211 28375
L34192 28394
L34154 28413
L34059 28413
L34021 28394
L34001 28375
" />
<path d="M34401 28375
L34421 28394
L34401 28413
L34382 28394
L34401 28375
L34401 28413
" />
<path d="M34668 28013
L34706 28013
L34744 28032
L34763 28051
L34782 28090
L34801 28166
L34801 28261
L34782 28337
L34763 28375
L34744 28394
L34706 28413
L34668 28413
L34630 28394
L34611 28375
L34592 28337
L34573 28261
L34573 28166
L34592 28090
L34611 28051
L34630 28032
L34668 28013
" />
<path d="M35909 28411
L35719 28411
L35719 28011
" />
<path d="M36042 28411
L36042 28011
L36176 28297
L36309 28011
L36309 28411
" />
<path d="M36709 28411
L36480 28411
" />
<path d="M36595 28411
L36595 28011
L36557 28069
L36519 28107
L36480 28126
" />
<path d="M36957 28011
L36995 28011
L37033 28030
L37052 28050
L37071 28088
L37090 28164
L37090 28259
L37071 28335
L37052 28373
L37033 28392
L36995 28411
L36957 28411
L36919 28392
L36900 28373
L36880 28335
L36861 28259
L36861 28164
L36880 28088
L36900 28050
L36919 28030
L36957 28011
" />
<path d="M37319 28183
L37280 28164
L37261 28145
L37242 28107
L37242 28088
L37261 28050
L37280 28030
L37319 28011
L37395 28011
L37433 28030
L37452 28050
L37471 28088
L37471 28107
L37452 28145
L37433 28164
L37395 28183
L37319 28183
L37280 28202
L37261 28221
L37242 28259
L37242 28335
L37261 28373
L37280 28392
L37319 28411
L37395 28411
L37433 28392
L37452 28373
L37471 28335
L37471 28259
L37452 28221
L37433 28202
L37395 28183
" />
<path d="M37814 28011
L37738 28011
L37700 28030
L37680 28050
L37642 28107
L37623 28183
L37623 28335
L37642 28373
L37661 28392
L37700 28411
L37776 28411
L37814 28392
L37833 28373
L37852 28335
L37852 28240
L37833 28202
L37814 28183
L37776 28164
L37700 28164
L37661 28183
L37642 28202
L37623 28240
" />
<path d="M38023 28259
L38328 28259
" />
<path d="M38480 28011
L38728 28011
L38595 28164
L38652 28164
L38690 28183
L38709 28202
L38728 28240
L38728 28335
L38709 28373
L38690 28392
L38652 28411
L38538 28411
L38500 28392
L38480 28373
" />
<path d="M38900 28373
L38919 28392
L38900 28411
L38880 28392
L38900 28373
L38900 28411
" />
<path d="M39052 28011
L39300 28011
L39166 28164
L39223 28164
L39261 28183
L39280 28202
L39300 28240
L39300 28335
L39280 28373
L39261 28392
L39223 28411
L39109 28411
L39071 28392
L39052 28373
" />
</g>
<g style="fill:#000000; fill-opacity:0.0; 
stroke:#000000; stroke-width:59.0551; stroke-opacity:1; 
stroke-linecap:round; stroke-linejoin:round;">
<path d="M50756 28765
L50981 28765
" />
<path d="M50868 29159
L50868 28765
" />
<path d="M51056 28765
L51187 29159
L51318 28765
" />
<path d="M51824 28765
L51899 28765
L51937 28784
L51974 28821
L51993 28896
L51993 29028
L51974 29103
L51937 29140
L51899 29159
L51824 29159
L51787 29140
L51750 29103
L51731 29028
L51731 28896
L51750 28821
L51787 28784
L51824 28765
" />
<path d="M52162 28765
L52162 29084
L52181 29121
L52199 29140
L52237 29159
L52312 29159
L52349 29140
L52368 29121
L52387 29084
L52387 28765
" />
<path d="M52518 28765
L52743 28765
" />
<path d="M52631 29159
L52631 28765
" />
<path d="M65540 29515
L65672 29909
L65803 29515
" />
<path d="M66140 29534
L66103 29515
L66046 29515
L65990 29534
L65953 29571
L65934 29609
L65915 29684
L65915 29740
L65934 29815
L65953 29853
L65990 29890
L66046 29909
L66084 29909
L66140 29890
L66159 29871
L66159 29740
L66084 29740
" />
<path d="M66309 29796
L66496 29796
" />
<path d="M66271 29909
L66403 29515
L66534 29909
" />
<path d="M67040 29515
L67115 29515
L67153 29534
L67190 29571
L67209 29646
L67209 29778
L67190 29853
L67153 29890
L67115 29909
L67040 29909
L67003 29890
L66965 29853
L66946 29778
L66946 29646
L66965 29571
L67003 29534
L67040 29515
" />
<path d="M67378 29515
L67378 29834
L67396 29871
L67415 29890
L67453 29909
L67528 29909
L67565 29890
L67584 29871
L67603 29834
L67603 29515
" />
<path d="M67734 29515
L67959 29515
" />
<path d="M67846 29909
L67846 29515
" />
</g>
<g style="fill:#000000; fill-opacity:0.0; 
stroke:#000000; stroke-width:80; stroke-opacity:1; 
stroke-linecap:round; stroke-linejoin:round;">
<path d="M73972 32095
L73972 32380
" />
<path d="M73972 32238
L73422 32238
L73501 32285
L73553 32333
L73579 32380
" />
<path d="M73422 31785
L73422 31738
L73448 31690
L73475 31666
L73527 31642
L73632 31619
L73763 31619
L73867 31642
L73920 31666
L73946 31690
L73972 31738
L73972 31785
L73946 31833
L73920 31857
L73867 31880
L73763 31904
L73632 31904
L73527 31880
L73475 31857
L73448 31833
L73422 31785
" />
<path d="M73972 31404
L73422 31404
" />
<path d="M73972 31119
L73658 31333
" />
<path d="M73422 31119
L73736 31404
" />
<path d="M54972 31857
L54972 32142
" />
<path d="M54972 32000
L54422 32000
L54501 32047
L54553 32095
L54579 32142
" />
<path d="M54972 31642
L54422 31642
" />
<path d="M54972 31357
L54658 31571
" />
<path d="M54422 31357
L54736 31642
" />
<path d="M63225 32369
L63198 32345
L63172 32297
L63172 32178
L63198 32130
L63225 32107
L63277 32083
L63329 32083
L63408 32107
L63722 32392
L63722 32083
" />
<path d="M63172 31916
L63172 31583
L63722 31797
" />
<path d="M63172 31297
L63172 31250
L63198 31202
L63225 31178
L63277 31154
L63382 31130
L63513 31130
L63617 31154
L63670 31178
L63696 31202
L63722 31250
L63722 31297
L63696 31345
L63670 31369
L63617 31392
L63513 31416
L63382 31416
L63277 31392
L63225 31369
L63198 31345
L63172 31297
" />
<path d="M64225 32369
L64198 32345
L64172 32297
L64172 32178
L64198 32130
L64225 32107
L64277 32083
L64329 32083
L64408 32107
L64722 32392
L64722 32083
" />
<path d="M64172 31916
L64172 31583
L64722 31797
" />
<path d="M64172 31297
L64172 31250
L64198 31202
L64225 31178
L64277 31154
L64382 31130
L64513 31130
L64617 31154
L64670 31178
L64696 31202
L64722 31250
L64722 31297
L64696 31345
L64670 31369
L64617 31392
L64513 31416
L64382 31416
L64277 31392
L64225 31369
L64198 31345
L64172 31297
" />
<path d="M62225 32369
L62198 32345
L62172 32297
L62172 32178
L62198 32130
L62225 32107
L62277 32083
L62329 32083
L62408 32107
L62722 32392
L62722 32083
" />
<path d="M62172 31916
L62172 31583
L62722 31797
" />
<path d="M62172 31297
L62172 31250
L62198 31202
L62225 31178
L62277 31154
L62382 31130
L62513 31130
L62617 31154
L62670 31178
L62696 31202
L62722 31250
L62722 31297
L62696 31345
L62670 31369
L62617 31392
L62513 31416
L62382 31416
L62277 31392
L62225 31369
L62198 31345
L62172 31297
" />
<path d="M61225 32369
L61198 32345
L61172 32297
L61172 32178
L61198 32130
L61225 32107
L61277 32083
L61329 32083
L61408 32107
L61722 32392
L61722 32083
" />
<path d="M61172 31916
L61172 31583
L61722 31797
" />
<path d="M61172 31297
L61172 31250
L61198 31202
L61225 31178
L61277 31154
L61382 31130
L61513 31130
L61617 31154
L61670 31178
L61696 31202
L61722 31250
L61722 31297
L61696 31345
L61670 31369
L61617 31392
L61513 31416
L61382 31416
L61277 31392
L61225 31369
L61198 31345
L61172 31297
" />
<path d="M60225 32369
L60198 32345
L60172 32297
L60172 32178
L60198 32130
L60225 32107
L60277 32083
L60329 32083
L60408 32107
L60722 32392
L60722 32083
" />
<path d="M60172 31916
L60172 31583
L60722 31797
" />
<path d="M60172 31297
L60172 31250
L60198 31202
L60225 31178
L60277 31154
L60382 31130
L60513 31130
L60617 31154
L60670 31178
L60696 31202
L60722 31250
L60722 31297
L60696 31345
L60670 31369
L60617 31392
L60513 31416
L60382 31416
L60277 31392
L60225 31369
L60198 31345
L60172 31297
" />
<path d="M51422 32107
L51422 32345
L51684 32369
L51658 32345
L51632 32297
L51632 32178
L51658 32130
L51684 32107
L51736 32083
L51867 32083
L51920 32107
L51946 32130
L51972 32178
L51972 32297
L51946 32345
L51920 32369
" />
<path d="M51422 31654
L51422 31750
L51448 31797
L51475 31821
L51553 31869
L51658 31892
L51867 31892
L51920 31869
L51946 31845
L51972 31797
L51972 31702
L51946 31654
L51920 31630
L51867 31607
L51736 31607
L51684 31630
L51658 31654
L51632 31702
L51632 31797
L51658 31845
L51684 31869
L51736 31892
" />
<path d="M51422 31297
L51422 31250
L51448 31202
L51475 31178
L51527 31154
L51632 31130
L51763 31130
L51867 31154
L51920 31178
L51946 31202
L51972 31250
L51972 31297
L51946 31345
L51920 31369
L51867 31392
L51763 31416
L51632 31416
L51527 31392
L51475 31369
L51448 31345
L51422 31297
" />
<path d="M53422 32107
L53422 32345
L53684 32369
L53658 32345
L53632 32297
L53632 32178
L53658 32130
L53684 32107
L53736 32083
L53867 32083
L53920 32107
L53946 32130
L53972 32178
L53972 32297
L53946 32345
L53920 32369
" />
<path d="M53422 31654
L53422 31750
L53448 31797
L53475 31821
L53553 31869
L53658 31892
L53867 31892
L53920 31869
L53946 31845
L53972 31797
L53972 31702
L53946 31654
L53920 31630
L53867 31607
L53736 31607
L53684 31630
L53658 31654
L53632 31702
L53632 31797
L53658 31845
L53684 31869
L53736 31892
" />
<path d="M53422 31297
L53422 31250
L53448 31202
L53475 31178
L53527 31154
L53632 31130
L53763 31130
L53867 31154
L53920 31178
L53946 31202
L53972 31250
L53972 31297
L53946 31345
L53920 31369
L53867 31392
L53763 31416
L53632 31416
L53527 31392
L53475 31369
L53448 31345
L53422 31297
" />
<path d="M52475 32369
L52448 32345
L52422 32297
L52422 32178
L52448 32130
L52475 32107
L52527 32083
L52579 32083
L52658 32107
L52972 32392
L52972 32083
" />
<path d="M52422 31916
L52422 31583
L52972 31797
" />
<path d="M52422 31297
L52422 31250
L52448 31202
L52475 31178
L52527 31154
L52632 31130
L52763 31130
L52867 31154
L52920 31178
L52946 31202
L52972 31250
L52972 31297
L52946 31345
L52920 31369
L52867 31392
L52763 31416
L52632 31416
L52527 31392
L52475 31369
L52448 31345
L52422 31297
" />
<path d="M72972 32083
L72972 32369
" />
<path d="M72972 32226
L72422 32226
L72501 32273
L72553 32321
L72579 32369
" />
<path d="M72422 31773
L72422 31726
L72448 31678
L72475 31654
L72527 31630
L72632 31607
L72763 31607
L72867 31630
L72920 31654
L72946 31678
L72972 31726
L72972 31773
L72946 31821
L72920 31845
L72867 31869
L72763 31892
L72632 31892
L72527 31869
L72475 31845
L72448 31821
L72422 31773
" />
<path d="M72422 31297
L72422 31250
L72448 31202
L72475 31178
L72527 31154
L72632 31130
L72763 31130
L72867 31154
L72920 31178
L72946 31202
L72972 31250
L72972 31297
L72946 31345
L72920 31369
L72867 31392
L72763 31416
L72632 31416
L72527 31392
L72475 31369
L72448 31345
L72422 31297
" />
<path d="M70972 32083
L70972 32369
" />
<path d="M70972 32226
L70422 32226
L70501 32273
L70553 32321
L70579 32369
" />
<path d="M70422 31773
L70422 31726
L70448 31678
L70475 31654
L70527 31630
L70632 31607
L70763 31607
L70867 31630
L70920 31654
L70946 31678
L70972 31726
L70972 31773
L70946 31821
L70920 31845
L70867 31869
L70763 31892
L70632 31892
L70527 31869
L70475 31845
L70448 31821
L70422 31773
" />
<path d="M70422 31297
L70422 31250
L70448 31202
L70475 31178
L70527 31154
L70632 31130
L70763 31130
L70867 31154
L70920 31178
L70946 31202
L70972 31250
L70972 31297
L70946 31345
L70920 31369
L70867 31392
L70763 31416
L70632 31416
L70527 31392
L70475 31369
L70448 31345
L70422 31297
" />
<path d="M69972 32095
L69972 32380
" />
<path d="M69972 32238
L69422 32238
L69501 32285
L69553 32333
L69579 32380
" />
<path d="M69422 31785
L69422 31738
L69448 31690
L69475 31666
L69527 31642
L69632 31619
L69763 31619
L69867 31642
L69920 31666
L69946 31690
L69972 31738
L69972 31785
L69946 31833
L69920 31857
L69867 31880
L69763 31904
L69632 31904
L69527 31880
L69475 31857
L69448 31833
L69422 31785
" />
<path d="M69972 31404
L69422 31404
" />
<path d="M69972 31119
L69658 31333
" />
<path d="M69422 31119
L69736 31404
" />
<path d="M71972 32095
L71972 32380
" />
<path d="M71972 32238
L71422 32238
L71501 32285
L71553 32333
L71579 32380
" />
<path d="M71422 31785
L71422 31738
L71448 31690
L71475 31666
L71527 31642
L71632 31619
L71763 31619
L71867 31642
L71920 31666
L71946 31690
L71972 31738
L71972 31785
L71946 31833
L71920 31857
L71867 31880
L71763 31904
L71632 31904
L71527 31880
L71475 31857
L71448 31833
L71422 31785
" />
<path d="M71972 31404
L71422 31404
" />
<path d="M71972 31119
L71658 31333
" />
<path d="M71422 31119
L71736 31404
" />
</g>
<g style="fill:#000000; fill-opacity:0.0; 
stroke:#000000; stroke-width:59.0551; stroke-opacity:1; 
stroke-linecap:round; stroke-linejoin:round;">
<path d="M44640 29409
L44640 29015
L44790 29015
L44828 29034
L44847 29053
L44865 29090
L44865 29146
L44847 29184
L44828 29203
L44790 29221
L44640 29221
" />
<path d="M45109 29015
L45184 29015
L45221 29034
L45259 29071
L45278 29146
L45278 29278
L45259 29353
L45221 29390
L45184 29409
L45109 29409
L45071 29390
L45034 29353
L45015 29278
L45015 29146
L45034 29071
L45071 29034
L45109 29015
" />
<path d="M45409 29015
L45503 29409
L45578 29128
L45653 29409
L45746 29015
" />
<path d="M45896 29203
L46028 29203
" />
<path d="M46084 29409
L45896 29409
L45896 29015
L46084 29015
" />
<path d="M46478 29409
L46346 29221
" />
<path d="M46253 29409
L46253 29015
L46403 29015
L46440 29034
L46459 29053
L46478 29090
L46478 29146
L46459 29184
L46440 29203
L46403 29221
L46253 29221
" />
<path d="M46946 29409
L46946 29015
" />
<path d="M47134 29409
L47134 29015
L47359 29409
L47359 29015
" />
</g>
<g style="fill:#000000; fill-opacity:0.0; 
stroke:#000000; stroke-width:60; stroke-opacity:1; 
stroke-linecap:round; stroke-linejoin:round;">
<path d="M53926 35911
L53926 35511
L54021 35511
L54078 35530
L54116 35569
L54135 35607
L54154 35683
L54154 35740
L54135 35816
L54116 35854
L54078 35892
L54021 35911
L53926 35911
" />
<path d="M54326 35702
L54459 35702
" />
<path d="M54516 35911
L54326 35911
L54326 35511
L54516 35511
" />
<path d="M54821 35702
L54878 35721
L54897 35740
L54916 35778
L54916 35835
L54897 35873
L54878 35892
L54840 35911
L54688 35911
L54688 35511
L54821 35511
L54859 35530
L54878 35550
L54897 35588
L54897 35626
L54878 35664
L54859 35683
L54821 35702
L54688 35702
" />
<path d="M55088 35511
L55088 35835
L55107 35873
L55126 35892
L55164 35911
L55240 35911
L55278 35892
L55297 35873
L55316 35835
L55316 35511
" />
<path d="M55716 35530
L55678 35511
L55621 35511
L55564 35530
L55526 35569
L55507 35607
L55488 35683
L55488 35740
L55507 35816
L55526 35854
L55564 35892
L55621 35911
L55659 35911
L55716 35892
L55735 35873
L55735 35740
L55659 35740
" />
<path d="M56211 35911
L56211 35511
L56364 35511
L56402 35530
L56421 35550
L56440 35588
L56440 35645
L56421 35683
L56402 35702
L56364 35721
L56211 35721
" />
<path d="M56592 35550
L56611 35530
L56650 35511
L56745 35511
L56783 35530
L56802 35550
L56821 35588
L56821 35626
L56802 35683
L56573 35911
L56821 35911
" />
<path d="M57069 35511
L57107 35511
L57145 35530
L57164 35550
L57183 35588
L57202 35664
L57202 35759
L57183 35835
L57164 35873
L57145 35892
L57107 35911
L57069 35911
L57030 35892
L57011 35873
L56992 35835
L56973 35759
L56973 35664
L56992 35588
L57011 35550
L57030 35530
L57069 35511
" />
<path d="M57621 35511
L57754 35911
L57888 35511
" />
<path d="M58230 35530
L58192 35511
L58135 35511
L58078 35530
L58040 35569
L58021 35607
L58002 35683
L58002 35740
L58021 35816
L58040 35854
L58078 35892
L58135 35911
L58173 35911
L58230 35892
L58250 35873
L58250 35740
L58173 35740
" />
<path d="M58402 35797
L58592 35797
" />
<path d="M58364 35911
L58497 35511
L58630 35911
" />
</g>
<g style="fill:#000000; fill-opacity:0.0; 
stroke:#000000; stroke-width:80; stroke-opacity:1; 
stroke-linecap:round; stroke-linejoin:round;">
<path d="M75611 25661
L75611 25261
L75764 25261
L75802 25280
L75821 25300
L75840 25338
L75840 25395
L75821 25433
L75802 25452
L75764 25471
L75611 25471
" />
<path d="M76240 25661
L76107 25471
" />
<path d="M76011 25661
L76011 25261
L76164 25261
L76202 25280
L76221 25300
L76240 25338
L76240 25395
L76221 25433
L76202 25452
L76164 25471
L76011 25471
" />
<path d="M76488 25261
L76564 25261
L76602 25280
L76640 25319
L76659 25395
L76659 25528
L76640 25604
L76602 25642
L76564 25661
L76488 25661
L76450 25642
L76411 25604
L76392 25528
L76392 25395
L76411 25319
L76450 25280
L76488 25261
" />
<path d="M76830 25661
L76830 25261
L76983 25261
L77021 25280
L77040 25300
L77059 25338
L77059 25395
L77040 25433
L77021 25452
L76983 25471
L76830 25471
" />
<path d="M77535 25661
L77535 25261
L77688 25261
L77726 25280
L77745 25300
L77764 25338
L77764 25395
L77745 25433
L77726 25452
L77688 25471
L77535 25471
" />
<path d="M78126 25661
L77935 25661
L77935 25261
" />
<path d="M78259 25261
L78259 25585
L78278 25623
L78297 25642
L78335 25661
L78411 25661
L78450 25642
L78469 25623
L78488 25585
L78488 25261
" />
<path d="M78888 25280
L78850 25261
L78792 25261
L78735 25280
L78697 25319
L78678 25357
L78659 25433
L78659 25490
L78678 25566
L78697 25604
L78735 25642
L78792 25661
L78830 25661
L78888 25642
L78907 25623
L78907 25490
L78830 25490
" />
<path d="M28702 50976
L28702 50842
" />
<path d="M28911 50785
L28911 50976
L28511 50976
L28511 50785
" />
<path d="M28511 50652
L28911 50385
" />
<path d="M28511 50385
L28911 50652
" />
<path d="M28911 50233
L28511 50233
L28511 50080
L28530 50042
L28550 50023
L28588 50004
L28645 50004
L28683 50023
L28702 50042
L28721 50080
L28721 50233
" />
<path d="M28797 49852
L28797 49661
" />
<path d="M28911 49890
L28511 49757
L28911 49623
" />
<path d="M28911 49490
L28511 49490
L28911 49261
L28511 49261
" />
<path d="M28892 49090
L28911 49033
L28911 48938
L28892 48900
L28873 48880
L28835 48861
L28797 48861
L28759 48880
L28740 48900
L28721 48938
L28702 49014
L28683 49052
L28664 49071
L28626 49090
L28588 49090
L28550 49071
L28530 49052
L28511 49014
L28511 48919
L28530 48861
" />
<path d="M28911 48690
L28511 48690
" />
<path d="M28511 48423
L28511 48347
L28530 48309
L28569 48271
L28645 48252
L28778 48252
L28854 48271
L28892 48309
L28911 48347
L28911 48423
L28892 48461
L28854 48499
L28778 48519
L28645 48519
L28569 48499
L28530 48461
L28511 48423
" />
<path d="M28911 48080
L28511 48080
L28911 47852
L28511 47852
" />
<path d="M28911 47357
L28511 47357
L28511 47204
L28530 47166
L28550 47147
L28588 47128
L28645 47128
L28683 47147
L28702 47166
L28721 47204
L28721 47357
" />
<path d="M28511 46880
L28511 46804
L28530 46766
L28569 46728
L28645 46709
L28778 46709
L28854 46728
L28892 46766
L28911 46804
L28911 46880
L28892 46919
L28854 46957
L28778 46976
L28645 46976
L28569 46957
L28530 46919
L28511 46880
" />
<path d="M28911 46309
L28721 46442
" />
<path d="M28911 46538
L28511 46538
L28511 46385
L28530 46347
L28550 46328
L28588 46309
L28645 46309
L28683 46328
L28702 46347
L28721 46385
L28721 46538
" />
<path d="M28511 46195
L28511 45966
" />
<path d="M28911 46080
L28511 46080
" />
</g>
<g style="fill:#000000; fill-opacity:0.0; 
stroke:#000000; stroke-width:120; stroke-opacity:1; 
stroke-linecap:round; stroke-linejoin:round;">
<path d="M69828 28740
L69828 28140
L70057 28140
L70114 28169
L70142 28198
L70171 28255
L70171 28340
L70142 28398
L70114 28426
L70057 28455
L69828 28455
" />
<path d="M70400 28712
L70485 28740
L70628 28740
L70685 28712
L70714 28683
L70742 28626
L70742 28569
L70714 28512
L70685 28483
L70628 28455
L70514 28426
L70457 28398
L70428 28369
L70400 28312
L70400 28255
L70428 28198
L70457 28169
L70514 28140
L70657 28140
L70742 28169
" />
<path d="M71428 28112
L70914 28883
" />
<path d="M71600 28198
L71628 28169
L71685 28140
L71828 28140
L71885 28169
L71914 28198
L71942 28255
L71942 28312
L71914 28398
L71571 28740
L71942 28740
" />
<path d="M72657 28740
L72657 28140
" />
<path d="M73000 28740
L72742 28398
" />
<path d="M73000 28140
L72657 28483
" />
<path d="M73457 28426
L73542 28455
L73571 28483
L73600 28540
L73600 28626
L73571 28683
L73542 28712
L73485 28740
L73257 28740
L73257 28140
L73457 28140
L73514 28169
L73542 28198
L73571 28255
L73571 28312
L73542 28369
L73514 28398
L73457 28426
L73257 28426
" />
<path d="M73857 28740
L73857 28140
L74000 28140
L74085 28169
L74142 28226
L74171 28283
L74200 28398
L74200 28483
L74171 28598
L74142 28655
L74085 28712
L74000 28740
L73857 28740
" />
</g>
<g style="fill:#000000; fill-opacity:0.0; 
stroke:#000000; stroke-width:60; stroke-opacity:1; 
stroke-linecap:round; stroke-linejoin:round;">
<path d="M45507 35892
L45564 35911
L45659 35911
L45697 35892
L45716 35873
L45735 35835
L45735 35797
L45716 35759
L45697 35740
L45659 35721
L45583 35702
L45545 35683
L45526 35664
L45507 35626
L45507 35588
L45526 35550
L45545 35530
L45583 35511
L45678 35511
L45735 35530
" />
<path d="M45983 35721
L45983 35911
" />
<path d="M45850 35511
L45983 35721
L46116 35511
" />
<path d="M46250 35911
L46250 35511
L46478 35911
L46478 35511
" />
<path d="M46897 35873
L46878 35892
L46821 35911
L46783 35911
L46726 35892
L46688 35854
L46669 35816
L46650 35740
L46650 35683
L46669 35607
L46688 35569
L46726 35530
L46783 35511
L46821 35511
L46878 35530
L46897 35550
" />
<path d="M47373 35911
L47373 35511
L47469 35511
L47526 35530
L47564 35569
L47583 35607
L47602 35683
L47602 35740
L47583 35816
L47564 35854
L47526 35892
L47469 35911
L47373 35911
" />
<path d="M47773 35702
L47907 35702
" />
<path d="M47964 35911
L47773 35911
L47773 35511
L47964 35511
" />
<path d="M48269 35702
L48326 35721
L48345 35740
L48364 35778
L48364 35835
L48345 35873
L48326 35892
L48288 35911
L48135 35911
L48135 35511
L48269 35511
L48307 35530
L48326 35550
L48345 35588
L48345 35626
L48326 35664
L48307 35683
L48269 35702
L48135 35702
" />
<path d="M48535 35511
L48535 35835
L48554 35873
L48573 35892
L48611 35911
L48688 35911
L48726 35892
L48745 35873
L48764 35835
L48764 35511
" />
<path d="M49164 35530
L49126 35511
L49069 35511
L49011 35530
L48973 35569
L48954 35607
L48935 35683
L48935 35740
L48954 35816
L48973 35854
L49011 35892
L49069 35911
L49107 35911
L49164 35892
L49183 35873
L49183 35740
L49107 35740
" />
<path d="M49888 35873
L49869 35892
L49811 35911
L49773 35911
L49716 35892
L49678 35854
L49659 35816
L49640 35740
L49640 35683
L49659 35607
L49678 35569
L49716 35530
L49773 35511
L49811 35511
L49869 35530
L49888 35550
" />
<path d="M50250 35911
L50059 35911
L50059 35511
" />
<path d="M50383 35911
L50383 35511
" />
<path d="M50611 35911
L50440 35683
" />
<path d="M50611 35511
L50383 35740
" />
<path d="M50764 35550
L50783 35530
L50821 35511
L50916 35511
L50954 35530
L50973 35550
L50992 35588
L50992 35626
L50973 35683
L50745 35911
L50992 35911
" />
</g>
<g style="fill:#000000; fill-opacity:0.0; 
stroke:#000000; stroke-width:59.0551; stroke-opacity:1; 
stroke-linecap:round; stroke-linejoin:round;">
<path d="M76428 29909
L76296 29721
" />
<path d="M76203 29909
L76203 29515
L76353 29515
L76390 29534
L76409 29553
L76428 29590
L76428 29646
L76409 29684
L76390 29703
L76353 29721
L76203 29721
" />
<path d="M76596 29703
L76728 29703
" />
<path d="M76784 29909
L76596 29909
L76596 29515
L76784 29515
" />
<path d="M76934 29890
L76990 29909
L77084 29909
L77121 29890
L77140 29871
L77159 29834
L77159 29796
L77140 29759
L77121 29740
L77084 29721
L77009 29703
L76971 29684
L76953 29665
L76934 29628
L76934 29590
L76953 29553
L76971 29534
L77009 29515
L77103 29515
L77159 29534
" />
<path d="M77328 29703
L77459 29703
" />
<path d="M77515 29909
L77328 29909
L77328 29515
L77515 29515
" />
<path d="M77628 29515
L77853 29515
" />
<path d="M77740 29909
L77740 29515
" />
</g>
<g style="fill:#000000; fill-opacity:0.0; 
stroke:#000000; stroke-width:25; stroke-opacity:1; 
stroke-linecap:round; stroke-linejoin:round;">
</g>
<g style="fill:#000000; fill-opacity:0.0; 
stroke:#000000; stroke-width:100; stroke-opacity:1; 
stroke-linecap:round; stroke-linejoin:round;">
</g>
<g style="fill:#000000; fill-opacity:0.0; 
stroke:#000000; stroke-width:80; stroke-opacity:1; 
stroke-linecap:round; stroke-linejoin:round;">
<path d="M79658 51285
L79632 51333
L79605 51357
L79553 51380
L79527 51380
L79475 51357
L79448 51333
L79422 51285
L79422 51190
L79448 51142
L79475 51119
L79527 51095
L79553 51095
L79605 51119
L79632 51142
L79658 51190
L79658 51285
L79684 51333
L79710 51357
L79763 51380
L79867 51380
L79920 51357
L79946 51333
L79972 51285
L79972 51190
L79946 51142
L79920 51119
L79867 51095
L79763 51095
L79710 51119
L79684 51142
L79658 51190
" />
<path d="M79475 50904
L79448 50880
L79422 50833
L79422 50714
L79448 50666
L79475 50642
L79527 50619
L79579 50619
L79658 50642
L79972 50928
L79972 50619
" />
<path d="M78658 51285
L78632 51333
L78605 51357
L78553 51380
L78527 51380
L78475 51357
L78448 51333
L78422 51285
L78422 51190
L78448 51142
L78475 51119
L78527 51095
L78553 51095
L78605 51119
L78632 51142
L78658 51190
L78658 51285
L78684 51333
L78710 51357
L78763 51380
L78867 51380
L78920 51357
L78946 51333
L78972 51285
L78972 51190
L78946 51142
L78920 51119
L78867 51095
L78763 51095
L78710 51119
L78684 51142
L78658 51190
" />
<path d="M78475 50904
L78448 50880
L78422 50833
L78422 50714
L78448 50666
L78475 50642
L78527 50619
L78579 50619
L78658 50642
L78972 50928
L78972 50619
" />
</g>
<g style="fill:#000000; fill-opacity:0.0; 
stroke:#000000; stroke-width:35; stroke-opacity:1; 
stroke-linecap:round; stroke-linejoin:round;">
<path d="M77871 57921
L77571 57921
L77571 57850
L77585 57807
L77614 57778
L77642 57764
L77700 57750
L77742 57750
L77800 57764
L77828 57778
L77857 57807
L77871 57850
L77871 57921
" />
<path d="M77714 57621
L77714 57521
" />
<path d="M77871 57478
L77871 57621
L77571 57621
L77571 57478
" />
<path d="M77714 57249
L77728 57207
L77742 57192
L77771 57178
L77814 57178
L77842 57192
L77857 57207
L77871 57235
L77871 57349
L77571 57349
L77571 57249
L77585 57221
L77600 57207
L77628 57192
L77657 57192
L77685 57207
L77700 57221
L77714 57249
L77714 57349
" />
<path d="M77571 57049
L77814 57049
L77842 57035
L77857 57021
L77871 56992
L77871 56935
L77857 56907
L77842 56892
L77814 56878
L77571 56878
" />
<path d="M77585 56578
L77571 56607
L77571 56649
L77585 56692
L77614 56721
L77642 56735
L77700 56749
L77742 56749
L77800 56735
L77828 56721
L77857 56692
L77871 56649
L77871 56621
L77857 56578
L77842 56564
L77742 56564
L77742 56621
" />
<path d="M77871 55442
L77571 55442
L77571 55328
L77585 55300
L77600 55285
L77628 55271
L77671 55271
L77700 55285
L77714 55300
L77728 55328
L77728 55442
" />
<path d="M77571 55085
L77571 55028
L77585 55000
L77614 54971
L77671 54957
L77771 54957
L77828 54971
L77857 55000
L77871 55028
L77871 55085
L77857 55114
L77828 55142
L77771 55157
L77671 55157
L77614 55142
L77585 55114
L77571 55085
" />
<path d="M77571 54857
L77871 54785
L77657 54728
L77871 54671
L77571 54600
" />
<path d="M77714 54485
L77714 54385
" />
<path d="M77871 54342
L77871 54485
L77571 54485
L77571 54342
" />
<path d="M77871 54042
L77728 54142
" />
<path d="M77871 54214
L77571 54214
L77571 54100
L77585 54071
L77600 54057
L77628 54042
L77671 54042
L77700 54057
L77714 54071
L77728 54100
L77728 54214
" />
</g>
<g style="fill:#000000; fill-opacity:0.0; 
stroke:#000000; stroke-width:112.5; stroke-opacity:1; 
stroke-linecap:round; stroke-linejoin:round;">
<path d="M66400 55296
L66371 55339
L66342 55360
L66285 55382
L66257 55382
L66200 55360
L66171 55339
L66142 55296
L66142 55210
L66171 55167
L66200 55146
L66257 55124
L66285 55124
L66342 55146
L66371 55167
L66400 55210
L66400 55296
L66428 55339
L66457 55360
L66514 55382
L66628 55382
L66685 55360
L66714 55339
L66742 55296
L66742 55210
L66714 55167
L66685 55146
L66628 55124
L66514 55124
L66457 55146
L66428 55167
L66400 55210
" />
<path d="M66742 54974
L66342 54739
" />
<path d="M66342 54974
L66742 54739
" />
<path d="M66200 54246
L66171 54224
L66142 54182
L66142 54074
L66171 54032
L66200 54010
L66257 53989
L66314 53989
L66400 54010
L66742 54267
L66742 53989
" />
<path d="M66742 53796
L66142 53796
" />
<path d="M66742 53539
L66400 53732
" />
<path d="M66142 53539
L66485 53796
" />
<path d="M66142 53389
L66142 53089
L66742 53282
" />
<path d="M66971 52446
L66942 52467
L66857 52510
L66800 52532
L66714 52553
L66571 52575
L66457 52575
L66314 52553
L66228 52532
L66171 52510
L66085 52467
L66057 52446
" />
<path d="M66142 52060
L66142 52275
L66428 52296
L66400 52275
L66371 52232
L66371 52125
L66400 52082
L66428 52060
L66485 52039
L66628 52039
L66685 52060
L66714 52082
L66742 52125
L66742 52232
L66714 52275
L66685 52296
" />
<path d="M66142 51910
L66742 51760
L66142 51610
" />
<path d="M66742 51053
L66714 51096
L66685 51117
L66628 51139
L66457 51139
L66400 51117
L66371 51096
L66342 51053
L66342 50989
L66371 50946
L66400 50925
L66457 50903
L66628 50903
L66685 50925
L66714 50946
L66742 50989
L66742 51053
" />
<path d="M66342 50710
L66742 50710
" />
<path d="M66400 50710
L66371 50689
L66342 50646
L66342 50582
L66371 50539
L66428 50517
L66742 50517
" />
<path d="M66742 50239
L66714 50282
L66657 50303
L66142 50303
" />
<path d="M66342 50110
L66742 50003
" />
<path d="M66342 49896
L66742 50003
L66885 50046
L66914 50067
L66942 50110
" />
<path d="M66971 49767
L66942 49746
L66857 49703
L66800 49682
L66714 49660
L66571 49639
L66457 49639
L66314 49660
L66228 49682
L66171 49703
L66085 49746
L66057 49767
" />
<path d="M66400 43046
L66371 43089
L66342 43110
L66285 43132
L66257 43132
L66200 43110
L66171 43089
L66142 43046
L66142 42960
L66171 42917
L66200 42896
L66257 42874
L66285 42874
L66342 42896
L66371 42917
L66400 42960
L66400 43046
L66428 43089
L66457 43110
L66514 43132
L66628 43132
L66685 43110
L66714 43089
L66742 43046
L66742 42960
L66714 42917
L66685 42896
L66628 42874
L66514 42874
L66457 42896
L66428 42917
L66400 42960
" />
<path d="M66742 42724
L66342 42489
" />
<path d="M66342 42724
L66742 42489
" />
<path d="M66200 41996
L66171 41974
L66142 41932
L66142 41824
L66171 41782
L66200 41760
L66257 41739
L66314 41739
L66400 41760
L66742 42017
L66742 41739
" />
<path d="M66742 41546
L66142 41546
" />
<path d="M66742 41289
L66400 41482
" />
<path d="M66142 41289
L66485 41546
" />
<path d="M66142 41139
L66142 40839
L66742 41032
" />
<path d="M66971 40196
L66942 40217
L66857 40260
L66800 40282
L66714 40303
L66571 40325
L66457 40325
L66314 40303
L66228 40282
L66171 40260
L66085 40217
L66057 40196
" />
<path d="M66142 39810
L66142 40025
L66428 40046
L66400 40025
L66371 39982
L66371 39875
L66400 39832
L66428 39810
L66485 39789
L66628 39789
L66685 39810
L66714 39832
L66742 39875
L66742 39982
L66714 40025
L66685 40046
" />
<path d="M66142 39660
L66742 39510
L66142 39360
" />
<path d="M66742 38803
L66714 38846
L66685 38867
L66628 38889
L66457 38889
L66400 38867
L66371 38846
L66342 38803
L66342 38739
L66371 38696
L66400 38675
L66457 38653
L66628 38653
L66685 38675
L66714 38696
L66742 38739
L66742 38803
" />
<path d="M66342 38460
L66742 38460
" />
<path d="M66400 38460
L66371 38439
L66342 38396
L66342 38332
L66371 38289
L66428 38267
L66742 38267
" />
<path d="M66742 37989
L66714 38032
L66657 38053
L66142 38053
" />
<path d="M66342 37860
L66742 37753
" />
<path d="M66342 37646
L66742 37753
L66885 37796
L66914 37817
L66942 37860
" />
<path d="M66971 37517
L66942 37496
L66857 37453
L66800 37432
L66714 37410
L66571 37389
L66457 37389
L66314 37410
L66228 37432
L66171 37453
L66085 37496
L66057 37517
" />
<path d="M45200 32150
L45157 32121
L45135 32092
L45114 32035
L45114 32007
L45135 31950
L45157 31921
L45200 31892
L45285 31892
L45328 31921
L45350 31950
L45371 32007
L45371 32035
L45350 32092
L45328 32121
L45285 32150
L45200 32150
L45157 32178
L45135 32207
L45114 32264
L45114 32378
L45135 32435
L45157 32464
L45200 32492
L45285 32492
L45328 32464
L45350 32435
L45371 32378
L45371 32264
L45350 32207
L45328 32178
L45285 32150
" />
<path d="M45521 32492
L45757 32092
" />
<path d="M45521 32092
L45757 32492
" />
<path d="M46250 31950
L46271 31921
L46314 31892
L46421 31892
L46464 31921
L46485 31950
L46507 32007
L46507 32064
L46485 32150
L46228 32492
L46507 32492
" />
<path d="M46700 32492
L46700 31892
" />
<path d="M46957 32492
L46764 32150
" />
<path d="M46957 31892
L46700 32235
" />
<path d="M47107 31892
L47407 31892
L47214 32492
" />
</g>
<g style="fill:#000000; fill-opacity:1.0; 
stroke:#000000; stroke-width:59.0551; stroke-opacity:1; 
stroke-linecap:round; stroke-linejoin:round;">
<polyline style="fill-rule:evenodd;"
points="76220,59720
70280,59720
70280,58280
76220,58280
76220,59720
" /> 
</g>
<g style="fill:#000000; fill-opacity:0.0; 
stroke:#000000; stroke-width:60; stroke-opacity:1; 
stroke-linecap:round; stroke-linejoin:round;">
<polyline fill="none;"
points="76220,59720
70280,59720
70280,58280
76220,58280
76220,59720
" /> 
</g> 
</svg>
